<svg width="39" height="37" viewBox="0 0 39 37" fill="none" xmlns="http://www.w3.org/2000/svg">
<g clip-path="url(#clip0)">
<path d="M37.9386 5.88316L32.9414 0.357726C32.9319 0.347248 32.922 0.33713 32.9118 0.327447C32.4753 -0.0865629 31.7677 -0.111061 31.3008 0.271513L27.3188 3.53351C27.0824 3.72704 26.9396 3.99644 26.9169 4.29179C26.8943 4.58722 26.994 4.87332 27.198 5.09748L27.3539 5.26883L27.0971 5.47926C26.4154 6.0378 25.3895 6.20488 24.3532 5.92601C24.3321 5.92037 21.3829 5.12632 21.3616 5.12162C20.824 5.00311 19.4333 4.81594 18.1051 5.62893C18.0837 5.64056 10.4735 9.77285 10.4529 9.78564C9.75824 10.215 8.79071 11.2883 9.57094 12.5876C9.57398 12.5927 9.57711 12.5976 9.58031 12.6026C9.91462 13.1199 10.3966 13.4279 10.9592 13.5134C10.9801 14.0438 11.229 14.5521 11.672 14.9158C12.5327 15.6225 13.8393 15.5333 14.5843 14.7166L17.4049 11.6248C17.5192 11.4995 17.6151 11.362 17.6922 11.2146L17.8085 11.1691C17.9606 11.71 18.3763 12.2485 19.2256 12.4769C22.7646 13.4291 23.5013 13.705 24.4921 13.6011C27.2544 13.3202 27.8875 13.2342 29.2787 12.4746C30.2793 11.9282 31.2533 11.2894 32.1808 10.5727L32.3504 10.7591C32.7733 11.2235 33.5112 11.2734 33.9991 10.8736L37.7897 7.76842C38.3769 7.28742 38.4437 6.4417 37.9386 5.88316ZM13.7204 14.007C13.149 14.6333 12.0704 14.2181 12.102 13.4056C12.102 13.4056 15.4775 12.0809 15.4777 12.0808L13.7204 14.007ZM28.7087 11.5349C27.5251 12.1812 27.1266 12.2427 24.3823 12.5218C23.6307 12.5983 23.0417 12.3768 19.5375 11.4339C19.0886 11.3131 18.9714 11.0854 18.9223 10.9247C18.8552 10.7051 18.898 10.4952 18.8979 10.4952C18.8985 10.4927 18.8986 10.4902 18.8992 10.4876C18.9002 10.4829 18.9017 10.4784 18.9026 10.4737C18.9029 10.4723 18.9387 10.3274 19.0372 10.2013C19.1224 10.0923 19.2506 9.98618 19.5572 10.0264C20.6383 10.1675 23.2128 10.4941 23.2386 10.4974C23.5522 10.5371 23.8389 10.3286 23.8807 10.0319C23.9225 9.7352 23.7029 9.46247 23.3901 9.4228C23.3642 9.41955 20.792 9.09327 19.713 8.95242C18.7029 8.82039 18.1077 9.41218 17.8731 9.97122L17.0398 10.2972C10.4625 12.8701 11.9453 12.3115 11.4571 12.4452C10.5383 12.5676 9.90876 11.4332 11.0641 10.702L18.6856 6.56296C18.6861 6.56274 18.6867 6.56245 18.6872 6.56216C18.6964 6.55711 18.7055 6.55183 18.7145 6.54634C19.6687 5.95694 20.6846 6.08731 21.0902 6.17496L24.0414 6.96916C25.4487 7.34769 26.8703 7.09751 27.8439 6.29998L28.1007 6.08955C28.5365 6.56838 31.047 9.32668 31.4342 9.75211C30.5618 10.4241 29.6472 11.0225 28.7087 11.5349ZM37.043 6.94777C37.0309 6.95767 33.2493 10.0608 33.2334 10.059C33.2116 10.0574 28.0313 4.38213 28.0655 4.35416L32.0475 1.09209H32.0476C32.0553 1.0858 32.0649 1.08269 32.0745 1.08269C32.0822 1.08269 32.0899 1.08472 32.0966 1.08877L37.0713 6.58919C37.1674 6.69535 37.1548 6.85629 37.043 6.94777Z" fill="white"/>
<path d="M28.1519 23.5119C28.0831 21.7639 25.7581 20.959 24.5268 22.3087L21.7061 25.4007C21.5917 25.526 21.496 25.6634 21.419 25.8107L21.3026 25.8563C21.1506 25.3154 20.7349 24.7769 19.8855 24.5485C16.1392 23.5404 15.6508 23.3383 14.6301 23.4233C14.6265 23.4236 14.6228 23.424 14.6192 23.4243C11.8569 23.7053 11.2237 23.7912 9.83253 24.5508C8.83178 25.0973 7.85785 25.736 6.93038 26.4528L6.76075 26.2665C6.33937 25.8036 5.59981 25.7522 5.11208 26.1519L1.11496 29.4261C0.63889 29.8159 0.58915 30.4978 1.00391 30.9465L6.2718 36.6419C6.66614 37.0682 7.35215 37.1216 7.79988 36.7623C7.80171 36.7608 7.80857 36.7553 7.81047 36.7538L11.7925 33.4917C12.2815 33.0912 12.3356 32.3916 11.9133 31.9277L11.7574 31.7563L12.0142 31.546C12.696 30.9874 13.722 30.8205 14.7582 31.0992L17.4077 31.8122C17.7111 31.8936 18.0272 31.7266 18.1133 31.4387C18.1994 31.1506 18.0231 30.8509 17.7195 30.7693L15.07 30.0563C13.6626 29.6777 12.2411 29.9279 11.2675 30.7254L11.0106 30.9358L7.67717 27.2733C8.54942 26.6013 9.46401 26.0028 10.4025 25.4903C11.5871 24.8435 11.9849 24.7825 14.7353 24.5028C15.3783 24.4497 15.7803 24.5596 17.9843 25.1603C19.6921 25.6257 20.0447 25.6281 20.1889 26.1005C20.256 26.3201 20.2132 26.53 20.2134 26.53C20.1853 26.6465 20.1325 26.7493 20.0741 26.824C19.9889 26.9329 19.8602 27.039 19.5542 26.9989C18.4729 26.8578 15.8986 26.5312 15.8727 26.5279C15.5592 26.4885 15.2725 26.6966 15.2307 26.9934C15.1889 27.2901 15.4085 27.5628 15.7212 27.6025C15.7471 27.6058 18.3194 27.932 19.3983 28.0729C20.2908 28.1895 20.9524 27.734 21.2378 27.0542C21.2663 27.0431 26.9915 24.8044 27.019 24.7914C27.6224 24.5007 28.1925 24.4342 28.5519 24.9817C28.9656 25.683 28.232 26.2064 28.0472 26.3233L20.4258 30.4623C20.4223 30.4642 20.419 30.466 20.4156 30.4679C20.4096 30.4713 20.4028 30.4754 20.397 30.479C20.2709 30.5568 20.1363 30.6262 19.9968 30.6853C19.7087 30.8073 19.5795 31.128 19.7082 31.4013C19.8369 31.6747 20.1751 31.7973 20.4628 31.6751C20.6527 31.5947 20.8365 31.5002 21.0068 31.3958C21.0294 31.3835 28.6365 27.253 28.6583 27.2394C30.7305 25.9594 29.7338 23.752 28.1519 23.5119ZM11.0485 32.6362C11.0506 32.6385 11.0555 32.6439 11.0548 32.6542C11.0535 32.6701 7.11799 35.8886 7.10535 35.899L1.87051 30.2395L5.85895 26.9722C5.86139 26.9702 5.86794 26.9651 5.87784 26.9663C5.88873 26.967 5.89368 26.9725 5.89574 26.9748C6.43382 27.566 10.4968 32.0301 11.0485 32.6362ZM23.6337 24.9444L25.3909 23.0181C25.9552 22.3995 27.0411 22.7965 27.0093 23.6195C27.0092 23.6196 23.6342 24.9442 23.6337 24.9444Z" fill="white"/>
<path d="M18.9029 16.8439C19.0098 17.0227 19.3254 17.2624 19.6984 17.2538C20.007 17.247 20.2927 17.0725 20.4474 16.8362C21.1833 15.7144 22.723 15.9672 23.1826 16.9884C23.3066 17.2636 23.6422 17.3916 23.9325 17.274C24.2228 17.1564 24.3575 16.8379 24.2336 16.5626C23.4533 14.8295 20.9652 14.4369 19.6753 15.9948C18.1116 14.0941 14.898 15.1739 14.9004 17.5623C14.9031 20.0733 17.1949 21.9938 19.3389 22.9538C19.5596 23.0527 19.8108 23.0476 20.0203 22.9532C21.5618 22.2594 23.2005 21.0282 23.959 19.5414C24.0965 19.2719 23.9776 18.9477 23.6936 18.8174C23.4094 18.6868 23.0678 18.7997 22.9304 19.0691C22.3124 20.2805 20.9438 21.3001 19.6779 21.9052C17.8946 21.0686 16.0453 19.5118 16.0432 17.5612C16.0418 16.0901 18.1225 15.5412 18.9029 16.8439Z" fill="white"/>
</g>
<defs>
<clipPath id="clip0">
<rect width="39" height="37" fill="white"/>
</clipPath>
</defs>
</svg>
