<svg width="732" height="506" viewBox="0 0 732 506" fill="none" xmlns="http://www.w3.org/2000/svg">
<mask id="mask0" mask-type="alpha" maskUnits="userSpaceOnUse" x="105" y="0" width="627" height="436">
<rect x="105" width="627" height="436" fill="white"/>
</mask>
<g mask="url(#mask0)">
<path fill-rule="evenodd" clip-rule="evenodd" d="M362.053 148.343C390.779 148.343 414.146 123.147 414.146 92.1817C414.146 61.196 390.779 36 362.053 36C333.326 36 309.96 61.196 309.96 92.1716C309.96 123.147 333.326 148.343 362.053 148.343ZM362.053 56.1729C380.462 56.1729 395.437 72.3314 395.437 92.1715C395.437 112.012 380.462 128.17 362.053 128.17C343.644 128.17 328.668 112.022 328.668 92.1816C328.668 72.3415 343.644 56.1729 362.053 56.1729ZM171.479 418.869C169.708 420.548 167.508 421.372 165.326 421.372C162.744 421.372 160.172 420.226 158.326 417.964C154.924 413.793 155.296 407.441 159.165 403.772L440.36 125.618C444.051 122.121 449.625 122.312 453.111 126.061L497.323 173.733L588.618 65.915C590.287 63.945 592.617 62.769 595.087 62.6484C597.539 62.5881 599.972 63.4826 601.799 65.2818L713.657 175.844C717.46 179.593 717.712 185.955 714.235 190.046C710.758 194.137 704.857 194.418 701.064 190.669L596.094 86.9117L510.513 187.965L555.322 236.281C558.967 240.211 558.967 246.563 555.322 250.493C551.677 254.423 545.786 254.423 542.141 250.493L446.111 146.957L171.479 418.869Z" fill="#C2D1D9"/>
</g>
</svg>
