<svg width="100" height="100" viewBox="0 0 100 100" fill="none" xmlns="http://www.w3.org/2000/svg">
<circle cx="50" cy="50" r="48" stroke="#82368C" stroke-width="4"/>
<path d="M66.9577 37.2292V66.8333C66.9577 71.325 63.2827 75 58.791 75H43.8868C41.6818 75 39.5993 74.1221 38.0681 72.5704L22.041 56.2779C22.041 56.2779 24.6135 53.7667 24.6952 53.7258C25.1443 53.3379 25.6956 53.1338 26.3081 53.1338C26.7573 53.1338 27.1656 53.2563 27.5331 53.4604C27.6148 53.4808 36.3327 58.4829 36.3327 58.4829V34.1667C36.3327 32.4721 37.7006 31.1042 39.3952 31.1042C41.0898 31.1042 42.4577 32.4721 42.4577 34.1667V48.4583H44.4993V29.0625C44.4993 27.3679 45.8673 26 47.5618 26C49.2564 26 50.6243 27.3679 50.6243 29.0625V48.4583H52.666V31.1042C52.666 29.4096 54.0339 28.0417 55.7285 28.0417C57.4231 28.0417 58.791 29.4096 58.791 31.1042V48.4583H60.8327V37.2292C60.8327 35.5346 62.2006 34.1667 63.8952 34.1667C65.5898 34.1667 66.9577 35.5346 66.9577 37.2292Z" fill="#82368C"/>
</svg>
