<?xml version="1.0"?>
<svg xmlns="http://www.w3.org/2000/svg" id="Layer_5" enable-background="new 0 0 64 64" height="512px" viewBox="0 0 64 64" width="512px" class=""><g><g><path d="m17 45h-2v2c-1.654 0-3 1.346-3 3s1.346 3 3 3h2c.551 0 1 .448 1 1s-.449 1-1 1h-3v-1h-2v3h3v2h2v-2c1.654 0 3-1.346 3-3s-1.346-3-3-3h-2c-.551 0-1-.448-1-1s.449-1 1-1h3v1h2v-3h-3z" data-original="#000000" class="active-path" data-old_color="#000000" fill="#FFFFFF"/><path d="m53 19v-2c1.654 0 3-1.346 3-3s-1.346-3-3-3h-2c-.551 0-1-.449-1-1s.449-1 1-1h3v1h2v-3h-3v-2h-2v2c-1.654 0-3 1.346-3 3s1.346 3 3 3h2c.551 0 1 .449 1 1s-.449 1-1 1h-3v-1h-2v3h3v2z" data-original="#000000" class="active-path" data-old_color="#000000" fill="#FFFFFF"/><path d="m61.553 49.658-9.317-4.658h-21.236v-7.266l4.062-4.256c.577.322 1.232.522 1.938.522 1.32 0 2.482-.65 3.211-1.638l6.878 2.752c-.051.288-.089.582-.089.886 0 2.757 2.243 5 5 5s5-2.243 5-5c0-2.414-1.721-4.434-4-4.899v-8.152c5.598-.507 10-5.221 10-10.949 0-6.065-4.935-11-11-11s-11 4.935-11 11c0 5.728 4.402 10.442 10 10.949v8.152c-1.322.269-2.452 1.064-3.171 2.154l-6.88-2.752c.021-.167.051-.331.051-.503 0-2.206-1.794-4-4-4s-4 1.794-4 4c0 .773.23 1.489.612 2.101l-2.612 2.736v-22.837c0-2.757-2.243-5-5-5h-20c-2.757 0-5 2.243-5 5v34c0 2.433 1.749 4.461 4.055 4.904-.035.361-.055.726-.055 1.096 0 6.065 4.935 11 11 11 3.408 0 6.459-1.559 8.479-4h27.757l9.317-4.658c.892-.447 1.447-1.344 1.447-2.342s-.555-1.895-1.447-2.342zm-18.553-37.658c0-4.962 4.038-9 9-9s9 4.038 9 9-4.038 9-9 9-9-4.038-9-9zm9 21c1.654 0 3 1.346 3 3s-1.346 3-3 3-3-1.346-3-3 1.346-3 3-3zm-15-5c1.103 0 2 .897 2 2s-.897 2-2 2-2-.897-2-2 .897-2 2-2zm-10.051 22.995c-.13-1.429-.538-2.776-1.163-3.995h24.344l-1.333 1.997 1.333 1.998zm2.051-5.995h-4.521c-.064-.077-.136-.147-.202-.222l4.723-4.949zm-26 1v-34c0-1.654 1.346-3 3-3h20c1.654 0 3 1.346 3 3v24.933l-6.168 6.462c-1.879-1.495-4.25-2.395-6.832-2.395-1.856 0-3.604.466-5.139 1.281-.29-.747-1.012-1.281-1.861-1.281h-2c-1.103 0-2 .897-2 2v2c0 .849.534 1.571 1.281 1.861-.349.657-.629 1.355-.84 2.083-1.387-.264-2.441-1.481-2.441-2.944zm4.521-1h-.521v-2h2v.521c-.538.446-1.033.941-1.479 1.479zm8.479 16c-4.962 0-9-4.037-9-9s4.038-9 9-9 9 4.037 9 9-4.038 9-9 9zm10.95-8.005h23.182l-1.334 2.002 1.334 2.003h-24.346c.627-1.222 1.034-2.573 1.164-4.005zm33.708-.442-8.315 4.158-1.141-1.713 2-3.002-2-2.998 1.14-1.708 8.316 4.158c.211.105.342.317.342.552s-.131.447-.342.553z" data-original="#000000" class="active-path" data-old_color="#000000" fill="#FFFFFF"/><path d="m7 23h18c1.103 0 2-.897 2-2v-8c0-1.103-.897-2-2-2h-18c-1.103 0-2 .897-2 2v8c0 1.103.897 2 2 2zm0-10h18l.001 8h-18.001z" data-original="#000000" class="active-path" data-old_color="#000000" fill="#FFFFFF"/><path d="m7 31h2c1.103 0 2-.897 2-2v-2c0-1.103-.897-2-2-2h-2c-1.103 0-2 .897-2 2v2c0 1.103.897 2 2 2zm0-4h2l.001 2h-2.001z" data-original="#000000" class="active-path" data-old_color="#000000" fill="#FFFFFF"/><path d="m17 25h-2c-1.103 0-2 .897-2 2v2c0 1.103.897 2 2 2h2c1.103 0 2-.897 2-2v-2c0-1.103-.897-2-2-2zm-2 4v-2h2l.001 2z" data-original="#000000" class="active-path" data-old_color="#000000" fill="#FFFFFF"/><path d="m25 25h-2c-1.103 0-2 .897-2 2v2c0 1.103.897 2 2 2h2c1.103 0 2-.897 2-2v-2c0-1.103-.897-2-2-2zm-2 4v-2h2l.001 2z" data-original="#000000" class="active-path" data-old_color="#000000" fill="#FFFFFF"/><path d="m7 39h2c1.103 0 2-.897 2-2v-2c0-1.103-.897-2-2-2h-2c-1.103 0-2 .897-2 2v2c0 1.103.897 2 2 2zm0-4h2l.001 2h-2.001z" data-original="#000000" class="active-path" data-old_color="#000000" fill="#FFFFFF"/><path d="m17 33h-2c-1.103 0-2 .897-2 2v2c0 1.103.897 2 2 2h2c1.103 0 2-.897 2-2v-2c0-1.103-.897-2-2-2zm-2 4v-2h2l.001 2z" data-original="#000000" class="active-path" data-old_color="#000000" fill="#FFFFFF"/><path d="m25 33h-2c-1.103 0-2 .897-2 2v2c0 1.103.897 2 2 2h2c1.103 0 2-.897 2-2v-2c0-1.103-.897-2-2-2zm-2 4v-2h2l.001 2z" data-original="#000000" class="active-path" data-old_color="#000000" fill="#FFFFFF"/></g></g> </svg>
