<svg width="100" height="100" viewBox="0 0 100 100" fill="none" xmlns="http://www.w3.org/2000/svg">
<path d="M41.3333 44.3H35.8889V49.7H41.3333V44.3ZM52.2222 44.3H46.7778V49.7H52.2222V44.3ZM63.1111 44.3H57.6667V49.7H63.1111V44.3ZM68.5556 25.4H65.8333V20H60.3889V25.4H38.6111V20H33.1667V25.4H30.4444C27.4228 25.4 25.0272 27.83 25.0272 30.8L25 68.6C25 71.57 27.4228 74 30.4444 74H68.5556C71.55 74 74 71.57 74 68.6V30.8C74 27.83 71.55 25.4 68.5556 25.4ZM68.5556 68.6H30.4444V38.9H68.5556V68.6Z" fill="#82368C"/>
<circle cx="50" cy="50" r="48" stroke="#82368C" stroke-width="4"/>
</svg>
