<svg width="729" height="124" viewBox="0 0 729 124" fill="none" xmlns="http://www.w3.org/2000/svg">
<path d="M68.2538 61.5956C70.9455 59.6725 72.4836 57.3647 73.6372 54.2877L108.244 53.1338C108.629 55.0569 109.398 56.9801 110.552 58.9032C112.09 60.8263 114.012 62.3648 115.935 63.1341L105.553 96.981C102.092 96.5964 99.0159 97.3656 95.9396 99.2888C92.8634 101.597 90.9408 104.674 90.5563 107.751C90.1718 111.212 90.9408 114.289 92.8634 117.366C95.1706 120.443 97.8623 121.982 100.938 122.751C104.399 123.135 107.475 122.366 110.936 120.443C114.012 118.135 115.935 115.058 116.319 111.981C116.704 108.52 115.935 105.443 114.012 102.366C112.474 100.443 110.936 98.9042 109.398 98.1349L120.165 63.9033C123.241 64.2879 126.317 63.5187 129.009 61.5956C132.085 59.2878 134.008 56.2108 134.392 53.1338C134.777 50.0568 134.008 46.5952 132.085 43.5182C129.778 40.4412 127.086 38.9027 124.01 38.1335C120.549 37.7488 117.473 38.5181 114.012 40.4412C110.936 42.749 109.014 45.4413 108.629 48.5183L74.4062 49.6722C74.0217 47.3644 73.2526 45.0567 72.0991 42.749C69.7919 39.672 67.1002 38.1335 64.024 37.3642C60.5633 36.9796 57.4871 37.7488 54.0264 39.672C50.9502 41.9797 49.0275 45.0567 48.643 48.1337C48.2585 51.5953 49.0275 54.6723 50.9502 57.7493C53.2573 60.8263 55.949 62.3648 59.0252 63.1341C61.7169 64.6726 65.1776 63.9033 68.2538 61.5956ZM112.09 111.981C111.705 114.289 110.552 116.212 108.244 117.751C105.937 119.289 104.015 120.059 101.708 119.289C99.4004 118.905 97.4777 117.751 95.9396 115.443C94.4015 113.135 93.6325 111.212 94.4015 108.904C94.7861 106.597 95.9396 104.674 98.2468 103.135C100.554 101.597 102.477 100.827 104.784 101.597C107.091 101.981 109.014 103.135 110.552 105.443C111.705 107.366 112.474 109.674 112.09 111.981ZM111.705 50.4415C112.09 48.1337 113.243 46.2106 115.55 44.6721C117.858 43.1336 119.78 42.3643 122.087 43.1336C124.395 43.5182 126.317 44.6721 127.855 46.9798C129.393 49.2876 130.162 51.2107 129.393 53.5184C129.009 55.8262 127.855 57.7493 125.548 59.2878C123.241 60.8263 121.318 61.5956 119.011 60.8263C116.704 60.4417 114.781 59.2878 113.243 56.9801C112.09 54.6723 111.705 52.3646 111.705 50.4415ZM51.7192 49.2876C52.1037 46.9798 53.2573 45.0567 55.5645 43.5182C57.8716 41.9797 59.7942 41.2105 62.1014 41.9797C64.4086 42.3643 66.3312 43.5182 67.8693 45.826C69.4074 48.1337 70.1764 50.0568 69.4074 52.3646C69.0229 54.6723 67.8693 56.5955 65.5621 58.134C63.255 59.6725 61.3324 60.4417 59.0252 59.6725C56.718 59.2878 54.7954 58.134 53.2573 55.8262C51.7192 54.2877 51.3347 51.9799 51.7192 49.2876Z" fill="white" stroke="white" stroke-width="0.5" stroke-miterlimit="10"/>
<path d="M60.5643 75.0583C57.1036 75.0583 54.4119 75.8275 52.4893 77.7506L24.0344 58.5194C24.8035 56.5963 25.5725 54.6732 25.5725 52.3654C25.5725 50.0577 25.188 47.7499 24.0344 45.4422L52.4893 23.9033C54.7965 26.211 57.8727 27.3649 61.7179 27.3649C65.5632 27.3649 69.0239 25.8264 70.9465 23.5187C73.2537 21.2109 74.4073 18.1339 74.4073 14.2877C74.4073 10.4414 73.2537 7.74906 70.9465 5.05669C68.6394 2.74894 65.5632 1.21045 61.7179 1.21045C57.8727 1.21045 54.7965 2.74894 52.4893 5.05669C50.1822 7.36443 49.0286 10.4414 49.0286 14.2877C49.0286 16.5954 49.4131 18.5185 50.5667 20.4416L22.1118 41.9806C19.8046 40.0575 16.7284 38.9036 13.6522 38.9036C9.80698 38.9036 6.73077 40.4421 4.42362 42.7498C2.11647 45.0576 0.962891 48.1346 0.962891 51.9808C0.962891 55.4424 2.11647 58.5194 4.42362 61.2118C6.73077 63.5195 9.80698 65.058 13.6522 65.058C17.4975 65.058 20.5737 63.9042 22.8808 61.5964L51.3357 80.8276C49.7976 82.7507 49.4131 85.0585 49.4131 88.1355C49.4131 91.5971 50.5667 94.6741 52.8738 97.3664C55.181 99.6742 58.2572 101.213 62.1024 101.213C65.9477 101.213 69.4084 99.6742 71.3311 97.3664C73.6382 95.0587 74.7918 91.9817 74.7918 88.1355C74.7918 84.2892 73.6382 81.5969 71.3311 78.9045C67.1013 76.2121 64.4096 75.0583 60.5643 75.0583ZM53.6429 8.13369C55.181 6.5952 57.4881 5.82595 59.7953 5.82595C62.1024 5.82595 64.7941 6.5952 65.9477 8.13369C67.4858 9.67219 68.2549 11.9799 68.2549 14.2877C68.2549 16.5954 67.4858 18.9032 65.9477 20.4416C64.4096 21.9801 62.487 22.7494 59.7953 22.7494C57.1036 22.7494 54.7965 21.9801 53.6429 20.4416C52.1048 18.9032 51.3357 16.5954 51.3357 14.2877C51.7203 11.9799 52.4893 10.0568 53.6429 8.13369ZM17.882 58.904C16.3439 60.4425 14.4213 61.2118 11.7296 61.2118C9.03793 61.2118 6.73077 60.4425 5.5772 58.904C4.0391 57.3655 3.27004 55.0578 3.27004 52.7501C3.27004 50.4423 4.0391 48.1346 5.5772 46.5961C7.1153 45.0576 9.42245 44.2883 11.7296 44.2883C14.4213 44.2883 16.7284 45.0576 17.882 46.5961C19.4201 48.1346 20.1892 50.4423 20.1892 52.7501C20.1892 55.0578 19.8046 56.9809 17.882 58.904ZM66.7168 94.2895C65.1786 95.828 63.256 96.5972 60.5643 96.5972C57.8727 96.5972 55.5655 95.828 54.4119 94.2895C52.8738 92.751 52.1048 90.4432 52.1048 88.1355C52.1048 85.8277 52.8738 83.52 54.4119 81.9815C55.95 80.443 58.2572 79.6737 60.5643 79.6737C62.8715 79.6737 65.5632 80.443 66.7168 81.9815C68.2549 83.52 69.0239 85.8277 69.0239 88.1355C69.0239 90.4432 68.2549 92.751 66.7168 94.2895Z" fill="#31B627" stroke="#31B627" stroke-width="0.5" stroke-miterlimit="10"/>
<path d="M179.385 120.056C178.232 120.441 176.309 120.825 174.002 121.21C171.31 121.595 169.003 121.595 166.696 121.595C164.389 121.595 162.082 121.595 160.159 121.21C158.236 120.825 156.698 120.056 155.545 119.287C154.391 118.518 153.238 116.979 152.853 115.441C152.084 113.902 152.084 111.594 152.084 108.902V24.2847C153.238 23.9001 155.16 23.9001 157.852 23.5155C160.544 23.1309 162.851 23.1309 165.158 23.1309C167.465 23.1309 169.772 23.1309 171.695 23.5155C173.617 23.9001 175.156 24.6694 176.309 25.4386C177.463 26.2078 178.616 27.7463 179.001 29.2848C179.77 30.8233 180.154 33.1311 180.154 35.8234V120.056H179.385Z" fill="#31B627"/>
<path d="M235.525 61.9782C232.834 61.9782 230.142 62.3628 227.835 63.132C225.528 63.9013 223.221 65.0551 221.682 66.9783C219.76 68.5168 218.606 70.8245 217.453 73.1323C216.299 75.44 215.915 78.517 215.915 81.594C215.915 88.1326 217.837 93.1327 221.682 96.5944C225.528 100.056 230.142 101.594 235.525 101.594C238.602 101.594 241.678 101.21 243.985 100.441C246.292 99.6714 248.599 98.9021 250.137 98.1329C252.444 99.6714 253.983 101.21 254.752 103.133C255.905 105.056 256.29 106.979 256.29 109.287C256.29 113.518 254.367 116.979 250.137 119.287C245.908 121.595 240.14 122.749 232.834 122.749C226.297 122.749 220.144 121.595 214.761 119.672C209.378 117.749 204.763 115.056 200.918 111.21C197.073 107.748 193.997 103.518 191.689 98.1329C189.382 93.1327 188.613 87.748 188.613 81.594C188.613 74.6708 189.767 68.5168 192.074 63.132C194.381 57.7473 197.457 53.5164 201.303 50.0548C205.148 46.5932 209.762 43.9008 215.146 42.3623C220.144 40.8238 225.912 39.6699 231.68 39.6699C239.371 39.6699 245.138 41.2084 249.368 43.9008C253.598 46.5932 255.521 50.4394 255.521 54.6703C255.521 56.5934 255.136 58.5165 253.983 60.4397C252.829 62.3628 252.06 63.9013 250.522 65.0551C248.599 64.2859 246.677 63.5166 243.985 62.7474C241.293 62.3628 238.602 61.9782 235.525 61.9782Z" fill="#31B627"/>
<path d="M341.653 81.9794C341.653 88.518 340.499 94.672 338.576 99.6721C336.654 104.672 333.578 109.288 330.117 112.749C326.272 116.211 322.042 118.903 317.043 120.826C312.044 122.75 306.276 123.519 299.739 123.519C293.587 123.519 287.819 122.75 282.436 120.826C277.437 118.903 272.823 116.211 269.362 112.749C265.517 109.288 262.825 104.672 260.902 99.6721C258.98 94.672 257.826 88.9026 257.826 82.364C257.826 76.21 258.98 70.4407 260.902 65.056C262.825 60.0558 265.901 55.4404 269.362 51.9788C273.207 48.5172 277.437 45.8248 282.436 43.9016C287.435 41.9785 293.202 41.2093 299.739 41.2093C305.892 41.2093 311.66 42.3632 317.043 44.2863C322.042 46.2094 326.656 48.9018 330.117 52.748C333.962 56.2096 336.654 60.8251 338.576 65.8252C340.884 70.0561 341.653 75.8254 341.653 81.9794ZM304.738 1.59302C310.122 1.59302 314.351 2.7469 316.659 4.67002C319.35 6.97776 320.504 9.28551 320.504 12.3625C320.504 15.0549 319.735 17.3626 318.197 19.2857C316.659 21.2089 314.351 23.132 310.891 24.6704L290.126 35.4399C287.05 35.0553 284.358 33.9014 282.051 31.5937C279.744 29.2859 278.591 26.9782 278.591 24.2858C278.591 23.132 278.975 21.5935 279.744 20.4396C280.513 19.2857 281.282 18.1318 282.82 16.978L304.738 1.59302ZM285.896 81.9794C285.896 88.518 287.05 93.5181 289.742 96.9797C292.433 100.441 295.894 102.364 300.124 102.364C304.738 102.364 308.199 100.441 310.506 96.9797C312.813 93.5181 313.967 88.518 313.967 81.9794C313.967 75.4408 312.813 70.8253 310.122 66.9791C307.814 63.5175 304.354 61.5944 299.739 61.5944C295.125 61.5944 291.664 63.5175 289.357 66.9791C287.05 70.4407 285.896 75.4408 285.896 81.9794Z" fill="#31B627"/>
<path d="M414.333 97.363C414.333 105.44 411.256 111.979 405.104 116.594C398.952 121.21 390.108 123.517 378.187 123.517C373.573 123.517 369.728 123.133 365.883 122.748C362.037 121.979 358.577 121.21 355.885 119.671C353.193 118.517 350.886 116.594 349.348 114.671C347.81 112.748 347.041 110.056 347.041 107.363C347.041 104.671 347.425 102.748 348.579 100.825C349.732 98.9015 350.886 97.7476 352.424 96.5938C355.5 98.1323 358.961 99.6707 363.191 101.209C367.036 102.363 371.65 103.132 377.034 103.132C380.494 103.132 382.802 102.748 384.724 101.594C386.647 100.825 387.416 99.2861 387.416 97.7476C387.416 96.2091 386.647 95.0553 385.493 94.286C384.34 93.5168 382.033 92.7475 378.956 92.3629L374.342 91.5937C365.113 89.6705 358.192 86.9782 353.578 83.1319C348.963 79.2857 346.656 73.5163 346.656 66.2085C346.656 62.3623 347.425 58.516 349.348 55.439C350.886 52.362 353.578 49.6697 356.654 47.3619C359.73 45.0542 363.575 43.5157 367.805 42.3618C372.035 41.208 377.034 40.4387 382.033 40.4387C385.878 40.4387 389.723 40.8233 393.184 41.208C396.645 41.9772 399.721 42.7464 402.412 43.9003C405.104 45.0542 407.027 46.5927 408.565 48.5158C410.103 50.4389 410.872 52.7467 410.872 55.0544C410.872 57.3621 410.487 59.6699 409.334 61.2084C408.565 63.1315 407.411 64.2854 405.873 65.4393C405.104 65.0546 403.566 64.2854 402.028 63.9008C400.49 63.1315 398.567 62.7469 396.26 62.3623C394.337 61.9776 392.03 61.593 390.108 61.2084C388.185 60.8238 386.262 60.8238 384.34 60.8238C380.879 60.8238 378.187 61.2084 376.265 61.9776C374.342 62.7469 373.573 63.9008 373.573 65.8239C373.573 66.9777 373.958 68.1316 375.111 68.5162C376.265 69.2855 378.187 70.0547 381.264 70.4394L386.262 71.5932C396.645 73.901 403.95 77.3626 408.18 81.2088C412.026 85.8243 414.333 90.8244 414.333 97.363Z" fill="white"/>
<path d="M502.385 81.9806C502.385 88.5192 501.232 94.6732 499.309 99.6733C497.386 104.673 494.31 109.289 490.849 112.751C487.389 116.212 482.774 118.905 477.776 120.828C472.777 122.751 467.009 123.52 460.472 123.52C454.319 123.52 448.552 122.751 443.168 120.828C438.169 118.905 433.555 116.212 430.094 112.751C426.249 109.289 423.557 104.673 421.635 99.6733C419.712 94.6732 418.559 88.9038 418.559 82.3652C418.559 76.2112 419.712 70.4419 421.635 65.0571C423.557 60.057 426.634 55.4416 430.094 51.9799C433.94 48.5183 438.169 45.8259 443.168 43.9028C448.167 41.9797 453.935 41.2104 460.472 41.2104C466.624 41.2104 472.392 42.3643 477.776 44.2875C482.774 46.2106 487.389 48.9029 490.849 52.7492C494.695 56.2108 497.386 60.8263 499.309 65.8264C501.232 70.0573 502.385 75.8266 502.385 81.9806ZM446.244 81.9806C446.244 88.5192 447.398 93.5193 450.09 96.9809C452.781 100.443 456.242 102.366 460.472 102.366C465.086 102.366 468.547 100.443 470.854 96.9809C473.161 93.5193 474.315 88.5192 474.315 81.9806C474.315 75.442 473.161 70.8265 470.47 66.9803C468.162 63.5186 464.702 61.5955 460.087 61.5955C455.473 61.5955 452.012 63.5186 449.705 66.9803C447.398 70.4419 446.244 75.442 446.244 81.9806Z" fill="white"/>
<path d="M553.146 61.9782C550.455 61.9782 547.763 62.3628 545.456 63.132C543.149 63.9013 540.842 65.0551 539.304 66.9783C537.381 68.5168 536.227 70.8245 535.074 73.1323C533.92 75.44 533.536 78.517 533.536 81.594C533.536 88.1326 535.458 93.1327 539.304 96.5944C543.149 100.056 547.763 101.594 553.146 101.594C556.223 101.594 559.299 101.21 561.606 100.441C563.913 99.6714 566.22 98.9021 567.758 98.1329C570.066 99.6714 571.604 101.21 572.373 103.133C573.526 105.056 573.911 106.979 573.911 109.287C573.911 113.518 571.988 116.979 567.758 119.287C563.529 121.595 557.761 122.749 550.455 122.749C543.918 122.749 537.765 121.595 532.382 119.672C526.999 117.749 522.384 115.056 518.539 111.21C514.694 107.748 511.618 103.518 509.311 98.1329C507.003 93.1327 506.234 87.748 506.234 81.594C506.234 74.6708 507.388 68.5168 509.695 63.132C512.002 57.7473 515.078 53.5164 518.924 50.0548C522.769 46.5932 527.383 43.9008 532.767 42.3623C537.765 40.8238 543.533 39.6699 549.301 39.6699C556.992 39.6699 562.76 41.2084 566.989 43.9008C571.219 46.5932 573.142 50.4394 573.142 54.6703C573.142 56.5934 572.757 58.5165 571.604 60.4397C570.45 62.3628 569.681 63.9013 568.143 65.0551C566.22 64.2859 564.298 63.5166 561.606 62.7474C558.914 62.3628 556.223 61.9782 553.146 61.9782Z" fill="white"/>
<path d="M608.901 120.442C607.747 120.827 605.825 120.827 603.517 121.212C601.21 121.596 598.903 121.596 596.596 121.596C594.289 121.596 591.982 121.596 590.444 121.212C588.521 120.827 586.983 120.442 585.829 119.288C584.676 118.519 583.522 116.981 582.753 115.442C581.984 113.904 581.6 111.596 581.6 108.904V43.9021C582.753 43.5175 584.676 43.5175 586.983 43.1329C589.29 42.7483 591.597 42.7483 593.904 42.7483C596.212 42.7483 598.519 42.7483 600.057 43.1329C601.979 43.5175 603.518 43.9022 604.671 45.056C605.825 45.8253 606.978 47.3638 607.747 48.9023C608.516 50.4408 608.901 52.7485 608.901 55.4409V120.442Z" fill="white"/>
<path d="M651.968 40.4387C657.736 40.4387 663.119 41.208 667.733 42.3618C672.348 43.5157 676.577 45.4388 680.038 47.7465C683.499 50.0543 685.806 53.1313 687.729 56.9775C689.651 60.8238 690.42 65.0546 690.42 70.0547V105.825C690.42 108.517 689.651 110.825 688.113 112.748C686.575 114.671 684.652 116.21 682.73 117.363C675.808 121.594 666.195 123.517 653.506 123.517C647.738 123.517 642.739 123.133 638.125 121.979C633.511 120.825 629.665 119.287 626.589 117.363C623.513 115.056 620.821 112.363 618.899 109.286C616.976 105.825 616.207 101.978 616.207 97.7476C616.207 90.4398 618.514 84.6704 622.744 80.8242C626.974 76.978 633.895 74.2856 643.124 73.5163L664.273 71.2086V70.0547C664.273 66.9777 662.735 64.67 660.043 63.5161C657.351 62.3623 653.506 61.593 648.123 61.593C643.893 61.593 640.048 61.9776 636.202 62.7469C632.357 63.5161 628.896 64.67 625.82 65.8239C624.282 64.67 623.128 63.5161 622.359 61.593C621.59 59.6699 620.821 57.7468 620.821 55.439C620.821 52.7467 621.59 50.4389 622.744 48.9004C623.898 47.3619 626.205 45.8234 628.896 44.6696C631.973 43.5157 635.818 42.7464 640.048 41.9772C644.277 40.8233 648.123 40.4387 651.968 40.4387ZM653.121 103.517C655.044 103.517 656.967 103.517 659.274 103.132C661.581 102.748 663.119 102.363 664.273 101.594V88.9013L652.737 89.6705C649.661 90.0552 647.354 90.4398 645.431 91.5937C643.508 92.7475 642.739 94.286 642.739 96.2092C642.739 98.5169 643.508 100.055 645.046 101.594C646.2 102.748 649.276 103.517 653.121 103.517Z" fill="white"/>
<path d="M728.1 120.441C726.947 120.826 725.024 120.826 722.717 121.211C720.41 121.595 718.102 121.595 715.795 121.595C713.488 121.595 711.181 121.595 709.643 121.211C707.72 120.826 706.182 120.441 705.029 119.287C703.875 118.518 702.721 116.98 701.952 115.441C701.183 113.903 700.799 111.595 700.799 108.903V16.2081C701.952 15.8235 703.875 15.8235 706.182 15.4388C708.489 15.0542 710.796 15.0542 713.104 15.0542C715.411 15.0542 717.718 15.0542 719.256 15.4388C721.179 15.8235 722.717 16.2081 723.87 17.362C725.024 18.1312 726.177 19.6697 726.947 21.2082C727.716 22.7467 728.1 25.0544 728.1 27.7468V120.441Z" fill="white"/>
</svg>
