<svg width="577" height="262" viewBox="0 0 577 262" fill="none" xmlns="http://www.w3.org/2000/svg">
<path d="M393.449 84.7579C397.295 82.0655 399.602 78.6039 400.755 74.7577L449.206 73.2192C449.59 75.9116 450.744 78.6039 452.666 81.2963C454.589 83.9887 457.281 86.2964 460.357 87.4503L445.745 134.759C441.131 133.99 436.516 135.144 432.286 138.221C428.057 141.298 425.365 145.529 424.596 150.144C423.827 154.759 424.98 159.375 428.057 163.606C431.133 167.837 434.978 170.144 439.592 171.298C444.207 172.068 448.821 170.914 453.435 167.837C457.665 164.76 460.357 160.529 461.126 155.913C461.895 151.298 460.741 146.682 457.665 142.452C455.742 139.759 453.435 137.836 451.128 136.682L466.125 88.9888C470.355 89.3734 474.584 88.2195 478.43 85.5272C482.659 82.4502 485.351 78.2193 486.12 73.6038C486.889 68.9883 485.736 64.3728 482.659 60.142C479.583 55.9111 475.738 53.6034 471.124 52.4495C466.509 51.6802 461.895 52.8341 457.281 55.9111C453.051 58.9881 450.359 62.8343 449.59 67.4498L401.524 68.9883C401.14 65.5267 399.986 62.4497 398.064 59.3727C394.987 55.1419 391.142 52.8341 386.528 51.6802C381.913 50.911 377.299 52.0649 372.685 55.1419C368.455 58.2188 365.763 62.4497 364.994 67.0652C364.225 71.6807 365.379 76.2962 368.455 80.527C371.531 84.7579 375.377 87.0657 379.991 88.2195C384.605 88.9888 389.219 87.8349 393.449 84.7579ZM454.973 155.144C454.589 158.221 452.666 160.913 449.59 163.221C446.514 165.529 443.438 166.298 440.361 165.529C436.901 164.76 434.594 163.221 432.286 160.144C430.364 157.067 429.21 154.375 429.979 150.913C430.364 147.836 432.286 145.144 435.363 142.836C438.439 140.528 441.515 139.759 444.591 140.528C447.667 141.298 450.359 142.836 452.666 145.913C454.589 148.99 455.358 152.067 454.973 155.144ZM454.589 68.9883C454.973 65.9113 456.896 63.219 459.972 60.9112C463.049 58.6035 466.125 57.8342 469.201 58.6035C472.277 59.3727 474.969 60.9112 477.276 63.9882C479.199 67.0652 480.352 70.1422 479.583 73.2192C479.199 76.2962 477.276 78.9885 474.2 81.2963C471.124 83.604 468.047 84.3733 464.971 83.604C461.51 82.8348 459.203 81.2963 456.896 78.2193C454.973 75.1423 454.204 72.0653 454.589 68.9883ZM370.378 67.8344C370.762 64.7575 372.685 62.0651 375.761 59.7573C378.837 57.4496 381.914 56.6804 384.99 57.4496C388.066 58.2188 390.758 59.7573 393.065 62.8343C394.987 65.9113 396.141 68.9883 395.372 72.0653C394.987 75.1423 393.065 77.8347 389.989 80.1424C386.912 82.4502 383.836 83.2194 380.76 82.4502C377.299 81.6809 374.992 80.1424 372.685 77.0654C370.762 74.3731 369.993 71.2961 370.378 67.8344Z" fill="white"/>
<path d="M382.679 103.605C378.065 103.605 374.219 104.759 371.143 107.451L331.152 80.5276C332.306 77.8352 333.075 75.1429 333.075 72.0659C333.075 68.6042 332.306 65.5273 330.768 62.4503L370.374 32.4496C373.835 35.9112 378.065 37.4497 383.063 37.4497C388.447 37.4497 393.061 35.5266 396.137 32.065C399.598 28.6033 401.136 24.3725 401.136 19.3724C401.136 14.3722 399.598 10.1414 396.137 6.29514C392.676 2.83352 388.447 0.9104 383.063 0.9104C377.68 0.9104 373.45 2.83352 369.99 6.29514C366.529 9.75675 364.991 13.9876 364.991 18.9877C364.991 22.0647 365.76 25.1417 366.913 27.4495L326.923 57.4501C323.846 54.7578 319.617 53.2193 315.002 53.2193C309.619 53.2193 305.389 55.1424 301.929 58.604C298.468 62.0656 296.93 66.2965 296.93 71.2966C296.93 76.2967 298.468 80.5276 301.929 83.9892C305.389 87.4508 309.619 89.3739 315.002 89.3739C320.386 89.3739 324.616 87.8354 327.692 84.3738L367.298 111.298C365.375 113.99 364.606 117.452 364.606 121.298C364.606 126.298 366.144 130.529 369.605 133.99C373.066 137.452 377.295 139.375 382.679 139.375C388.062 139.375 392.677 137.452 395.753 133.99C399.213 130.529 400.752 126.298 400.752 121.298C400.752 116.298 399.213 112.067 395.753 108.221C392.292 105.144 388.062 103.605 382.679 103.605ZM373.45 10.1414C375.757 7.83363 378.834 6.67976 382.294 6.67976C385.755 6.67976 389.216 7.83363 391.138 10.1414C393.446 12.4491 394.599 15.5261 394.599 18.9877C394.599 22.4493 393.446 25.5263 391.138 27.8341C388.831 30.1418 386.14 31.2957 382.294 31.2957C378.449 31.2957 375.373 30.1418 373.45 27.8341C371.143 25.5263 369.99 22.4493 369.99 18.9877C370.374 15.5261 371.528 12.8337 373.45 10.1414ZM323.462 80.9122C321.155 83.22 318.463 84.3738 314.618 84.3738C310.773 84.3738 307.696 83.22 305.774 80.9122C303.467 78.6045 302.313 75.5275 302.313 72.0659C302.313 68.6042 303.467 65.5273 305.774 63.2195C308.081 60.9118 311.157 59.7579 314.618 59.7579C318.463 59.7579 321.539 60.9118 323.462 63.2195C325.769 65.5273 326.923 68.6042 326.923 72.0659C326.923 75.5275 325.769 78.2198 323.462 80.9122ZM391.523 130.529C389.216 132.836 386.524 133.99 382.679 133.99C378.834 133.99 375.757 132.836 373.835 130.529C371.528 128.221 370.374 125.144 370.374 121.682C370.374 118.221 371.528 115.144 373.835 112.836C376.142 110.528 379.218 109.374 382.679 109.374C386.14 109.374 389.6 110.528 391.523 112.836C393.83 115.144 394.984 118.221 394.984 121.682C394.984 125.144 393.83 128.221 391.523 130.529Z" fill="#31B627"/>
<path d="M27.3775 258.224C26.2239 258.608 24.3013 258.993 21.9941 259.377C19.3024 259.762 16.9953 259.762 14.6881 259.762C12.381 259.762 10.0738 259.762 8.1512 259.377C6.22857 258.993 4.69047 258.224 3.53689 257.454C2.38331 256.685 1.22974 255.147 0.845211 253.608C0.0761601 252.07 0.0761719 249.762 0.0761719 247.07V162.452C1.22975 162.068 3.15237 162.068 5.84405 161.683C8.53573 161.298 10.8429 161.298 13.15 161.298C15.4572 161.298 17.7643 161.298 19.687 161.683C21.6096 162.068 23.1477 162.837 24.3013 163.606C25.4548 164.375 26.6084 165.914 26.9929 167.452C27.762 168.991 28.1465 171.299 28.1465 173.991V258.224H27.3775Z" fill="#31B627"/>
<path d="M83.5175 200.146C80.8259 200.146 78.1342 200.53 75.827 201.3C73.5199 202.069 71.2127 203.223 69.6746 205.146C67.752 206.684 66.5984 208.992 65.4449 211.3C64.2913 213.608 63.9068 216.685 63.9068 219.762C63.9068 226.3 65.8294 231.3 69.6746 234.762C73.5199 238.224 78.1342 239.762 83.5175 239.762C86.5938 239.762 89.67 239.377 91.9771 238.608C94.2843 237.839 96.5914 237.07 98.1295 236.3C100.437 237.839 101.975 239.377 102.744 241.301C103.897 243.224 104.282 245.147 104.282 247.455C104.282 251.685 102.359 255.147 98.1295 257.455C93.8997 259.763 88.1319 260.916 80.8259 260.916C74.289 260.916 68.1365 259.763 62.7532 257.839C57.3698 255.916 52.7555 253.224 48.9103 249.378C45.065 245.916 41.9888 241.685 39.6817 236.3C37.3745 231.3 36.6055 225.916 36.6055 219.762C36.6055 212.838 37.759 206.684 40.0662 201.3C42.3733 195.915 45.4495 191.684 49.2948 188.222C53.1401 184.761 57.7544 182.068 63.1377 180.53C68.1365 178.992 73.9044 177.838 79.6723 177.838C87.3628 177.838 93.1307 179.376 97.3605 182.069C101.59 184.761 103.513 188.607 103.513 192.838C103.513 194.761 103.128 196.684 101.975 198.607C100.821 200.53 100.052 202.069 98.514 203.223C96.5914 202.454 94.6688 201.684 91.9771 200.915C89.2854 200.53 86.5938 200.146 83.5175 200.146Z" fill="#31B627"/>
<path d="M189.645 220.147C189.645 226.686 188.491 232.84 186.569 237.84C184.646 242.84 181.57 247.456 178.109 250.917C174.264 254.379 170.034 257.071 165.035 258.994C160.036 260.917 154.269 261.687 147.732 261.687C141.579 261.687 135.811 260.917 130.428 258.994C125.429 257.071 120.815 254.379 117.354 250.917C113.509 247.456 110.817 242.84 108.895 237.84C106.972 232.84 105.818 227.07 105.818 220.532C105.818 214.378 106.972 208.608 108.895 203.224C110.817 198.224 113.893 193.608 117.354 190.146C121.199 186.685 125.429 183.993 130.428 182.069C135.427 180.146 141.195 179.377 147.732 179.377C153.884 179.377 159.652 180.531 165.035 182.454C170.034 184.377 174.648 187.07 178.109 190.916C181.954 194.377 184.646 198.993 186.569 203.993C188.876 208.224 189.645 213.993 189.645 220.147ZM152.73 139.761C158.114 139.761 162.344 140.915 164.651 142.838C167.342 145.145 168.496 147.453 168.496 150.53C168.496 153.223 167.727 155.53 166.189 157.453C164.651 159.377 162.344 161.3 158.883 162.838L138.118 173.608C135.042 173.223 132.351 172.069 130.043 169.761C127.736 167.454 126.583 165.146 126.583 162.454C126.583 161.3 126.967 159.761 127.736 158.607C128.505 157.453 129.274 156.3 130.813 155.146L152.73 139.761ZM133.889 220.147C133.889 226.686 135.042 231.686 137.734 235.148C140.426 238.609 143.886 240.532 148.116 240.532C152.73 240.532 156.191 238.609 158.498 235.148C160.805 231.686 161.959 226.686 161.959 220.147C161.959 213.609 160.805 208.993 158.114 205.147C155.807 201.685 152.346 199.762 147.732 199.762C143.117 199.762 139.657 201.685 137.349 205.147C135.042 208.608 133.889 213.609 133.889 220.147Z" fill="#31B627"/>
<path d="M262.325 235.531C262.325 243.608 259.249 250.146 253.096 254.762C246.944 259.377 238.1 261.685 226.179 261.685C221.565 261.685 217.72 261.3 213.875 260.916C210.029 260.147 206.569 259.377 203.877 257.839C201.185 256.685 198.878 254.762 197.34 252.839C195.802 250.916 195.033 248.223 195.033 245.531C195.033 242.838 195.417 240.915 196.571 238.992C197.725 237.069 198.878 235.915 200.416 234.761C203.493 236.3 206.953 237.838 211.183 239.377C215.028 240.531 219.643 241.3 225.026 241.3C228.487 241.3 230.794 240.915 232.716 239.761C234.639 238.992 235.408 237.454 235.408 235.915C235.408 234.377 234.639 233.223 233.485 232.454C232.332 231.684 230.025 230.915 226.949 230.53L222.334 229.761C213.106 227.838 206.184 225.146 201.57 221.299C196.956 217.453 194.648 211.684 194.648 204.376C194.648 200.53 195.417 196.684 197.34 193.607C198.878 190.53 201.57 187.837 204.646 185.529C207.722 183.222 211.568 181.683 215.797 180.529C220.027 179.375 225.026 178.606 230.025 178.606C233.87 178.606 237.715 178.991 241.176 179.375C244.637 180.145 247.713 180.914 250.405 182.068C253.096 183.222 255.019 184.76 256.557 186.683C258.095 188.606 258.864 190.914 258.864 193.222C258.864 195.53 258.48 197.837 257.326 199.376C256.557 201.299 255.403 202.453 253.865 203.607C253.096 203.222 251.558 202.453 250.02 202.068C248.482 201.299 246.559 200.914 244.252 200.53C242.329 200.145 240.022 199.761 238.1 199.376C236.177 198.991 234.254 198.991 232.332 198.991C228.871 198.991 226.179 199.376 224.257 200.145C222.334 200.914 221.565 202.068 221.565 203.991C221.565 205.145 221.95 206.299 223.103 206.684C224.257 207.453 226.179 208.222 229.256 208.607L234.254 209.761C244.637 212.069 251.943 215.53 256.172 219.376C260.018 223.992 262.325 228.992 262.325 235.531Z" fill="white"/>
<path d="M350.377 220.145C350.377 226.684 349.224 232.838 347.301 237.838C345.378 242.838 342.302 247.453 338.842 250.915C335.381 254.377 330.767 257.069 325.768 258.992C320.769 260.915 315.001 261.685 308.464 261.685C302.312 261.685 296.544 260.915 291.16 258.992C286.162 257.069 281.547 254.377 278.087 250.915C274.241 247.453 271.55 242.838 269.627 237.838C267.704 232.838 266.551 227.068 266.551 220.53C266.551 214.376 267.704 208.606 269.627 203.222C271.55 198.222 274.626 193.606 278.087 190.144C281.932 186.683 286.162 183.99 291.16 182.067C296.159 180.144 301.927 179.375 308.464 179.375C314.616 179.375 320.384 180.529 325.768 182.452C330.767 184.375 335.381 187.067 338.842 190.914C342.687 194.375 345.378 198.991 347.301 203.991C349.224 208.222 350.377 213.991 350.377 220.145ZM294.237 220.145C294.237 226.684 295.39 231.684 298.082 235.145C300.774 238.607 304.234 240.53 308.464 240.53C313.078 240.53 316.539 238.607 318.846 235.145C321.153 231.684 322.307 226.684 322.307 220.145C322.307 213.607 321.153 208.991 318.462 205.145C316.155 201.683 312.694 199.76 308.079 199.76C303.465 199.76 300.004 201.683 297.697 205.145C295.39 208.606 294.237 213.607 294.237 220.145Z" fill="white"/>
<path d="M401.139 200.146C398.447 200.146 395.755 200.53 393.448 201.3C391.141 202.069 388.834 203.223 387.296 205.146C385.373 206.684 384.22 208.992 383.066 211.3C381.912 213.608 381.528 216.685 381.528 219.762C381.528 226.3 383.451 231.3 387.296 234.762C391.141 238.224 395.755 239.762 401.139 239.762C404.215 239.762 407.291 239.377 409.598 238.608C411.905 237.839 414.213 237.07 415.751 236.3C418.058 237.839 419.596 239.377 420.365 241.301C421.519 243.224 421.903 245.147 421.903 247.455C421.903 251.685 419.98 255.147 415.751 257.455C411.521 259.763 405.753 260.916 398.447 260.916C391.91 260.916 385.758 259.763 380.374 257.839C374.991 255.916 370.377 253.224 366.531 249.378C362.686 245.916 359.61 241.685 357.303 236.3C354.996 231.3 354.227 225.916 354.227 219.762C354.227 212.838 355.38 206.684 357.687 201.3C359.994 195.915 363.071 191.684 366.916 188.222C370.761 184.761 375.375 182.068 380.759 180.53C385.758 178.992 391.526 177.838 397.293 177.838C404.984 177.838 410.752 179.376 414.982 182.069C419.211 184.761 421.134 188.607 421.134 192.838C421.134 194.761 420.75 196.684 419.596 198.607C418.442 200.53 417.673 202.069 416.135 203.223C414.213 202.454 412.29 201.684 409.598 200.915C406.907 200.53 404.215 200.146 401.139 200.146Z" fill="white"/>
<path d="M456.893 258.61C455.739 258.995 453.817 258.995 451.51 259.379C449.203 259.764 446.895 259.764 444.588 259.764C442.281 259.764 439.974 259.764 438.436 259.379C436.513 258.995 434.975 258.61 433.822 257.456C432.668 256.687 431.514 255.148 430.745 253.61C429.976 252.071 429.592 249.764 429.592 247.071V182.07C430.745 181.685 432.668 181.685 434.975 181.301C437.282 180.916 439.589 180.916 441.897 180.916C444.204 180.916 446.511 180.916 448.049 181.301C449.972 181.685 451.51 182.07 452.663 183.224C453.817 183.993 454.97 185.531 455.739 187.07C456.509 188.608 456.893 190.916 456.893 193.609V258.61Z" fill="white"/>
<path d="M499.96 178.606C505.728 178.606 511.111 179.375 515.726 180.529C520.34 181.683 524.57 183.606 528.03 185.914C531.491 188.222 533.798 191.299 535.721 195.145C537.644 198.991 538.413 203.222 538.413 208.222V243.992C538.413 246.685 537.644 248.992 536.105 250.916C534.567 252.839 532.645 254.377 530.722 255.531C523.801 259.762 514.188 261.685 501.498 261.685C495.73 261.685 490.731 261.3 486.117 260.147C481.503 258.993 477.658 257.454 474.581 255.531C471.505 253.223 468.814 250.531 466.891 247.454C464.968 243.992 464.199 240.146 464.199 235.915C464.199 228.607 466.506 222.838 470.736 218.992C474.966 215.145 481.887 212.453 491.116 211.684L512.265 209.376V208.222C512.265 205.145 510.727 202.838 508.035 201.684C505.343 200.53 501.498 199.761 496.115 199.761C491.885 199.761 488.04 200.145 484.195 200.914C480.349 201.684 476.889 202.838 473.812 203.991C472.274 202.838 471.121 201.684 470.352 199.761C469.583 197.837 468.814 195.914 468.814 193.607C468.814 190.914 469.583 188.606 470.736 187.068C471.89 185.529 474.197 183.991 476.889 182.837C479.965 181.683 483.81 180.914 488.04 180.145C492.27 178.991 496.115 178.606 499.96 178.606ZM501.114 241.685C503.036 241.685 504.959 241.685 507.266 241.3C509.573 240.915 511.111 240.531 512.265 239.761V227.069L500.729 227.838C497.653 228.223 495.346 228.607 493.423 229.761C491.5 230.915 490.731 232.454 490.731 234.377C490.731 236.684 491.501 238.223 493.039 239.761C494.192 240.915 497.268 241.685 501.114 241.685Z" fill="white"/>
<path d="M576.092 258.609C574.939 258.993 573.016 258.993 570.709 259.378C568.402 259.763 566.095 259.763 563.787 259.763C561.48 259.763 559.173 259.763 557.635 259.378C555.712 258.993 554.174 258.609 553.021 257.455C551.867 256.686 550.714 255.147 549.945 253.609C549.175 252.07 548.791 249.762 548.791 247.07V154.376C549.945 153.991 551.867 153.991 554.174 153.606C556.482 153.222 558.789 153.222 561.096 153.222C563.403 153.222 565.71 153.222 567.248 153.606C569.171 153.991 570.709 154.376 571.863 155.529C573.016 156.299 574.17 157.837 574.939 159.376C575.708 160.914 576.092 163.222 576.092 165.914V258.609Z" fill="white"/>
</svg>
