<svg width="728" height="124" viewBox="0 0 728 124" fill="none" xmlns="http://www.w3.org/2000/svg">
<path d="M68.1243 61.5663C70.8127 59.6432 72.3489 57.3354 73.5011 54.2584L108.066 53.1045C108.45 55.0276 109.218 56.9508 110.37 58.8739C111.907 60.797 113.827 62.3355 115.747 63.1048L105.378 96.9517C101.921 96.5671 98.8488 97.3363 95.7763 99.2595C92.7039 101.567 90.7836 104.644 90.3995 107.721C90.0155 111.183 90.7836 114.26 92.7039 117.337C95.0082 120.414 97.6966 121.952 100.769 122.722C104.226 123.106 107.298 122.337 110.754 120.414C113.827 118.106 115.747 115.029 116.131 111.952C116.515 108.49 115.747 105.413 113.827 102.336C112.291 100.413 110.754 98.8749 109.218 98.1056L119.972 63.874C123.044 64.2586 126.117 63.4894 128.805 61.5663C131.878 59.2585 133.798 56.1815 134.182 53.1045C134.566 50.0275 133.798 46.5659 131.878 43.4889C129.573 40.4119 126.885 38.8734 123.812 38.1042C120.356 37.7195 117.283 38.4888 113.827 40.4119C110.754 42.7197 108.834 45.412 108.45 48.489L74.2692 49.6429C73.8851 47.3352 73.117 45.0274 71.9648 42.7197C69.6605 39.6427 66.9721 38.1042 63.8997 37.3349C60.4432 36.9503 57.3707 37.7195 53.9142 39.6427C50.8418 41.9504 48.9215 45.0274 48.5374 48.1044C48.1534 51.566 48.9215 54.643 50.8418 57.72C53.1461 60.797 55.8345 62.3355 58.9069 63.1048C61.5953 64.6433 65.0518 63.874 68.1243 61.5663ZM111.907 111.952C111.523 114.26 110.37 116.183 108.066 117.721C105.762 119.26 103.841 120.029 101.537 119.26C99.2328 118.875 97.3125 117.721 95.7763 115.414C94.2401 113.106 93.472 111.183 94.2401 108.875C94.6241 106.567 95.7763 104.644 98.0806 103.106C100.385 101.567 102.305 100.798 104.61 101.567C106.914 101.952 108.834 103.106 110.37 105.413C111.523 107.337 112.291 109.644 111.907 111.952ZM111.523 50.4122C111.907 48.1044 113.059 46.1813 115.363 44.6428C117.668 43.1043 119.588 42.335 121.892 43.1043C124.196 43.4889 126.117 44.6428 127.653 46.9505C129.189 49.2583 129.957 51.1814 129.189 53.4891C128.805 55.7969 127.653 57.72 125.349 59.2585C123.044 60.797 121.124 61.5663 118.82 60.797C116.515 60.4124 114.595 59.2585 113.059 56.9508C111.907 54.643 111.523 52.3353 111.523 50.4122ZM51.6099 49.2583C51.9939 46.9505 53.1461 45.0274 55.4504 43.4889C57.7548 41.9504 59.675 41.1812 61.9794 41.9504C64.2837 42.335 66.204 43.4889 67.7402 45.7967C69.2764 48.1044 70.0446 50.0275 69.2764 52.3353C68.8924 54.643 67.7402 56.5662 65.4359 58.1047C63.1315 59.6432 61.2113 60.4124 58.9069 59.6432C56.6026 59.2585 54.6823 58.1047 53.1461 55.7969C51.6099 54.2584 51.2258 51.9507 51.6099 49.2583Z" fill="#83368D" stroke="#82368C" stroke-width="0.5" stroke-miterlimit="10"/>
<path d="M60.4447 75.029C56.9882 75.029 54.2998 75.7982 52.3795 77.7213L23.9594 58.4901C24.7275 56.567 25.4956 54.6439 25.4956 52.3362C25.4956 50.0284 25.1115 47.7206 23.9594 45.4129L52.3795 23.874C54.6839 26.1817 57.7563 27.3356 61.5969 27.3356C65.4374 27.3356 68.8939 25.7971 70.8142 23.4894C73.1185 21.1816 74.2707 18.1046 74.2707 14.2584C74.2707 10.4121 73.1185 7.71976 70.8142 5.02739C68.5099 2.71965 65.4374 1.18115 61.5969 1.18115C57.7563 1.18115 54.6839 2.71965 52.3795 5.02739C50.0752 7.33514 48.923 10.4121 48.923 14.2584C48.923 16.5661 49.3071 18.4892 50.4592 20.4123L22.0391 41.9513C19.7348 40.0282 16.6623 38.8743 13.5899 38.8743C9.7493 38.8743 6.67686 40.4128 4.37252 42.7206C2.06818 45.0283 0.916016 48.1053 0.916016 51.9515C0.916016 55.4131 2.06818 58.4901 4.37252 61.1825C6.67686 63.4902 9.7493 65.0287 13.5899 65.0287C17.4304 65.0287 20.5029 63.8749 22.8072 61.5671L51.2274 80.7983C49.6911 82.7215 49.3071 85.0292 49.3071 88.1062C49.3071 91.5678 50.4592 94.6448 52.7636 97.3371C55.0679 99.6449 58.1404 101.183 61.9809 101.183C65.8215 101.183 69.278 99.6449 71.1983 97.3371C73.5026 95.0294 74.6548 91.9524 74.6548 88.1062C74.6548 84.2599 73.5026 81.5676 71.1983 78.8752C66.9736 76.1828 64.2853 75.029 60.4447 75.029ZM53.5317 8.1044C55.0679 6.5659 57.3722 5.79666 59.6766 5.79666C61.9809 5.79666 64.6693 6.5659 65.8215 8.1044C67.3577 9.64289 68.1258 11.9506 68.1258 14.2584C68.1258 16.5661 67.3577 18.8739 65.8215 20.4123C64.2853 21.9508 62.365 22.7201 59.6766 22.7201C56.9882 22.7201 54.6838 21.9508 53.5317 20.4123C51.9955 18.8739 51.2274 16.5661 51.2274 14.2584C51.6114 11.9506 52.3795 10.0275 53.5317 8.1044ZM17.8145 58.8747C16.2783 60.4132 14.358 61.1825 11.6696 61.1825C8.98119 61.1825 6.67686 60.4132 5.52469 58.8747C3.98846 57.3363 3.22035 55.0285 3.22035 52.7208C3.22035 50.413 3.98846 48.1053 5.52469 46.5668C7.06091 45.0283 9.36525 44.2591 11.6696 44.2591C14.358 44.2591 16.6623 45.0283 17.8145 46.5668C19.3507 48.1053 20.1188 50.413 20.1188 52.7208C20.1188 55.0285 19.7348 56.9516 17.8145 58.8747ZM66.5896 94.2602C65.0534 95.7987 63.1331 96.5679 60.4447 96.5679C57.7563 96.5679 55.452 95.7987 54.2998 94.2602C52.7636 92.7217 51.9955 90.4139 51.9955 88.1062C51.9955 85.7984 52.7636 83.4907 54.2998 81.9522C55.836 80.4137 58.1404 79.6444 60.4447 79.6444C62.749 79.6444 65.4374 80.4137 66.5896 81.9522C68.1258 83.4907 68.8939 85.7984 68.8939 88.1062C68.8939 90.4139 68.1258 92.7217 66.5896 94.2602Z" fill="#31B627" stroke="#31B627" stroke-width="0.5" stroke-miterlimit="10"/>
<path d="M179.122 120.027C177.969 120.411 176.049 120.796 173.745 121.181C171.056 121.565 168.752 121.565 166.448 121.565C164.143 121.565 161.839 121.565 159.919 121.181C157.998 120.796 156.462 120.027 155.31 119.258C154.158 118.488 153.006 116.95 152.622 115.411C151.854 113.873 151.854 111.565 151.854 108.873V24.2554C153.006 23.8708 154.926 23.8708 157.614 23.4862C160.303 23.1016 162.607 23.1016 164.911 23.1016C167.216 23.1016 169.52 23.1016 171.44 23.4862C173.361 23.8708 174.897 24.6401 176.049 25.4093C177.201 26.1786 178.353 27.717 178.737 29.2555C179.506 30.794 179.89 33.1018 179.89 35.7941V120.027H179.122Z" fill="#31B627"/>
<path d="M235.193 61.9489C232.504 61.9489 229.816 62.3335 227.512 63.1027C225.207 63.872 222.903 65.0258 221.367 66.949C219.446 68.4875 218.294 70.7952 217.142 73.103C215.99 75.4107 215.606 78.4877 215.606 81.5647C215.606 88.1033 217.526 93.1034 221.367 96.5651C225.207 100.027 229.816 101.565 235.193 101.565C238.265 101.565 241.338 101.181 243.642 100.411C245.946 99.6421 248.251 98.8728 249.787 98.1036C252.091 99.6421 253.627 101.181 254.395 103.104C255.548 105.027 255.932 106.95 255.932 109.258C255.932 113.489 254.011 116.95 249.787 119.258C245.562 121.566 239.801 122.72 232.504 122.72C225.975 122.72 219.83 121.566 214.454 119.643C209.077 117.719 204.468 115.027 200.628 111.181C196.787 107.719 193.715 103.488 191.41 98.1036C189.106 93.1035 188.338 87.7187 188.338 81.5647C188.338 74.6415 189.49 68.4875 191.794 63.1027C194.099 57.718 197.171 53.4871 201.012 50.0255C204.852 46.5639 209.461 43.8715 214.838 42.333C219.83 40.7945 225.591 39.6406 231.352 39.6406C239.033 39.6406 244.794 41.1791 249.019 43.8715C253.243 46.5639 255.164 50.4101 255.164 54.641C255.164 56.5641 254.78 58.4872 253.627 60.4104C252.475 62.3335 251.707 63.872 250.171 65.0258C248.251 64.2566 246.33 63.4873 243.642 62.7181C240.954 62.3335 238.265 61.9489 235.193 61.9489Z" fill="#31B627"/>
<path d="M341.191 81.9501C341.191 88.4887 340.039 94.6427 338.119 99.6428C336.198 104.643 333.126 109.258 329.669 112.72C325.829 116.182 321.604 118.874 316.611 120.797C311.619 122.72 305.858 123.49 299.329 123.49C293.184 123.49 287.423 122.72 282.046 120.797C277.054 118.874 272.445 116.182 268.988 112.72C265.148 109.258 262.46 104.643 260.539 99.6428C258.619 94.6427 257.467 88.8733 257.467 82.3347C257.467 76.1807 258.619 70.4114 260.539 65.0267C262.46 60.0265 265.532 55.4111 268.988 51.9495C272.829 48.4879 277.054 45.7955 282.046 43.8723C287.039 41.9492 292.8 41.18 299.329 41.18C305.474 41.18 311.235 42.3339 316.611 44.257C321.604 46.1801 326.213 48.8725 329.669 52.7187C333.51 56.1803 336.198 60.7958 338.119 65.7959C340.423 70.0268 341.191 75.7961 341.191 81.9501ZM304.322 1.56372C309.698 1.56372 313.923 2.7176 316.227 4.64072C318.916 6.94847 320.068 9.25621 320.068 12.3332C320.068 15.0256 319.3 17.3333 317.764 19.2564C316.227 21.1796 313.923 23.1027 310.466 24.6412L289.727 35.4106C286.655 35.026 283.967 33.8721 281.662 31.5644C279.358 29.2567 278.206 26.9489 278.206 24.2565C278.206 23.1027 278.59 21.5642 279.358 20.4103C280.126 19.2564 280.894 18.1025 282.43 16.9487L304.322 1.56372ZM285.503 81.9501C285.503 88.4887 286.655 93.4888 289.343 96.9504C292.032 100.412 295.488 102.335 299.713 102.335C304.322 102.335 307.778 100.412 310.082 96.9504C312.387 93.4888 313.539 88.4887 313.539 81.9501C313.539 75.4115 312.387 70.796 309.698 66.9498C307.394 63.4882 303.938 61.5651 299.329 61.5651C294.72 61.5651 291.264 63.4882 288.959 66.9498C286.655 70.4114 285.503 75.4115 285.503 81.9501Z" fill="#31B627"/>
<path d="M413.781 97.3337C413.781 105.411 410.709 111.949 404.564 116.565C398.419 121.18 389.586 123.488 377.68 123.488C373.071 123.488 369.231 123.103 365.39 122.719C361.55 121.95 358.093 121.18 355.405 119.642C352.716 118.488 350.412 116.565 348.876 114.642C347.34 112.719 346.572 110.026 346.572 107.334C346.572 104.642 346.956 102.718 348.108 100.795C349.26 98.8722 350.412 97.7183 351.948 96.5645C355.021 98.103 358.477 99.6415 362.702 101.18C366.542 102.334 371.151 103.103 376.528 103.103C379.984 103.103 382.289 102.718 384.209 101.565C386.129 100.795 386.897 99.2568 386.897 97.7183C386.897 96.1798 386.129 95.026 384.977 94.2567C383.825 93.4875 381.521 92.7182 378.448 92.3336L373.839 91.5644C364.622 89.6412 357.709 86.9489 353.101 83.1026C348.492 79.2564 346.188 73.487 346.188 66.1792C346.188 62.333 346.956 58.4867 348.876 55.4097C350.412 52.3327 353.1 49.6404 356.173 47.3326C359.245 45.0249 363.086 43.4864 367.311 42.3325C371.535 41.1787 376.528 40.4094 381.521 40.4094C385.361 40.4094 389.202 40.794 392.658 41.1787C396.115 41.9479 399.187 42.7171 401.876 43.871C404.564 45.0249 406.484 46.5634 408.02 48.4865C409.557 50.4096 410.325 52.7174 410.325 55.0251C410.325 57.3328 409.941 59.6406 408.789 61.1791C408.02 63.1022 406.868 64.2561 405.332 65.41C404.564 65.0253 403.028 64.2561 401.492 63.8715C399.955 63.1022 398.035 62.7176 395.731 62.333C393.81 61.9483 391.506 61.5637 389.586 61.1791C387.666 60.7945 385.745 60.7945 383.825 60.7945C380.368 60.7945 377.68 61.1791 375.76 61.9483C373.839 62.7176 373.071 63.8715 373.071 65.7946C373.071 66.9485 373.455 68.1023 374.608 68.4869C375.76 69.2562 377.68 70.0254 380.753 70.4101L385.745 71.5639C396.115 73.8717 403.412 77.3333 407.636 81.1795C411.477 85.795 413.781 90.7951 413.781 97.3337Z" fill="#82368C"/>
<path d="M501.726 81.9513C501.726 88.4899 500.574 94.6439 498.654 99.644C496.733 104.644 493.661 109.26 490.204 112.721C486.748 116.183 482.139 118.875 477.147 120.798C472.154 122.721 466.393 123.491 459.864 123.491C453.719 123.491 447.958 122.721 442.582 120.798C437.589 118.875 432.98 116.183 429.524 112.721C425.683 109.26 422.995 104.644 421.074 99.644C419.154 94.6439 418.002 88.8745 418.002 82.3359C418.002 76.1819 419.154 70.4126 421.074 65.0278C422.995 60.0277 426.067 55.4123 429.524 51.9506C433.364 48.489 437.589 45.7966 442.582 43.8735C447.574 41.9504 453.335 41.1812 459.864 41.1812C466.009 41.1812 471.77 42.335 477.147 44.2582C482.139 46.1813 486.748 48.8736 490.204 52.7199C494.045 56.1815 496.733 60.797 498.654 65.7971C500.574 70.028 501.726 75.7973 501.726 81.9513ZM445.654 81.9513C445.654 88.4899 446.806 93.49 449.495 96.9516C452.183 100.413 455.639 102.336 459.864 102.336C464.473 102.336 467.929 100.413 470.234 96.9516C472.538 93.49 473.69 88.4899 473.69 81.9513C473.69 75.4127 472.538 70.7972 469.849 66.951C467.545 63.4893 464.089 61.5662 459.48 61.5662C454.871 61.5662 451.415 63.4893 449.11 66.951C446.806 70.4126 445.654 75.4127 445.654 81.9513Z" fill="#82368C"/>
<path d="M552.427 61.9489C549.739 61.9489 547.05 62.3335 544.746 63.1027C542.442 63.872 540.137 65.0258 538.601 66.949C536.681 68.4875 535.529 70.7952 534.376 73.103C533.224 75.4107 532.84 78.4877 532.84 81.5647C532.84 88.1033 534.761 93.1034 538.601 96.5651C542.442 100.027 547.05 101.565 552.427 101.565C555.5 101.565 558.572 101.181 560.876 100.411C563.181 99.6421 565.485 98.8728 567.021 98.1036C569.326 99.6421 570.862 101.181 571.63 103.104C572.782 105.027 573.166 106.95 573.166 109.258C573.166 113.489 571.246 116.95 567.021 119.258C562.797 121.566 557.036 122.72 549.739 122.72C543.21 122.72 537.065 121.566 531.688 119.643C526.311 117.719 521.703 115.027 517.862 111.181C514.021 107.719 510.949 103.488 508.645 98.1036C506.34 93.1035 505.572 87.7187 505.572 81.5647C505.572 74.6415 506.724 68.4875 509.029 63.1027C511.333 57.718 514.406 53.4871 518.246 50.0255C522.087 46.5639 526.695 43.8715 532.072 42.333C537.065 40.7945 542.826 39.6406 548.587 39.6406C556.268 39.6406 562.029 41.1791 566.253 43.8715C570.478 46.5639 572.398 50.4101 572.398 54.641C572.398 56.5641 572.014 58.4872 570.862 60.4104C569.71 62.3335 568.942 63.872 567.405 65.0258C565.485 64.2566 563.565 63.4873 560.876 62.7181C558.188 62.3335 555.5 61.9489 552.427 61.9489Z" fill="#82368C"/>
<path d="M608.112 120.413C606.96 120.798 605.039 120.798 602.735 121.182C600.431 121.567 598.126 121.567 595.822 121.567C593.518 121.567 591.213 121.567 589.677 121.182C587.757 120.798 586.221 120.413 585.068 119.259C583.916 118.49 582.764 116.951 581.996 115.413C581.228 113.874 580.844 111.567 580.844 108.874V43.8728C581.996 43.4882 583.916 43.4882 586.221 43.1036C588.525 42.719 590.829 42.719 593.134 42.719C595.438 42.719 597.742 42.719 599.278 43.1036C601.199 43.4882 602.735 43.8729 603.887 45.0267C605.039 45.796 606.191 47.3345 606.96 48.873C607.728 50.4115 608.112 52.7192 608.112 55.4116V120.413Z" fill="#82368C"/>
<path d="M651.127 40.4094C656.888 40.4094 662.265 41.1787 666.874 42.3325C671.482 43.4864 675.707 45.4095 679.163 47.7172C682.62 50.025 684.924 53.102 686.844 56.9482C688.765 60.7945 689.533 65.0253 689.533 70.0254V105.795C689.533 108.488 688.765 110.796 687.229 112.719C685.692 114.642 683.772 116.18 681.852 117.334C674.939 121.565 665.337 123.488 652.664 123.488C646.903 123.488 641.91 123.104 637.301 121.95C632.693 120.796 628.852 119.257 625.78 117.334C622.707 115.026 620.019 112.334 618.099 109.257C616.178 105.795 615.41 101.949 615.41 97.7183C615.41 90.4105 617.714 84.6411 621.939 80.7949C626.164 76.9487 633.077 74.2563 642.294 73.4871L663.417 71.1793V70.0254C663.417 66.9484 661.881 64.6407 659.192 63.4868C656.504 62.333 652.664 61.5637 647.287 61.5637C643.062 61.5637 639.222 61.9483 635.381 62.7176C631.54 63.4868 628.084 64.6407 625.012 65.7946C623.475 64.6407 622.323 63.4868 621.555 61.5637C620.787 59.6406 620.019 57.7175 620.019 55.4097C620.019 52.7174 620.787 50.4096 621.939 48.8711C623.091 47.3326 625.396 45.7941 628.084 44.6403C631.156 43.4864 634.997 42.7171 639.222 41.9479C643.446 40.794 647.287 40.4094 651.127 40.4094ZM652.279 103.488C654.2 103.488 656.12 103.488 658.424 103.103C660.729 102.718 662.265 102.334 663.417 101.565V88.872L651.895 89.6412C648.823 90.0259 646.519 90.4105 644.598 91.5644C642.678 92.7182 641.91 94.2567 641.91 96.1799C641.91 98.4876 642.678 100.026 644.214 101.565C645.366 102.718 648.439 103.488 652.279 103.488Z" fill="#82368C"/>
<path d="M727.166 120.412C726.014 120.797 724.094 120.797 721.79 121.181C719.485 121.566 717.181 121.566 714.877 121.566C712.572 121.566 710.268 121.566 708.732 121.181C706.811 120.797 705.275 120.412 704.123 119.258C702.971 118.489 701.819 116.95 701.051 115.412C700.282 113.873 699.898 111.566 699.898 108.873V16.1788C701.051 15.7942 702.971 15.7942 705.275 15.4096C707.58 15.0249 709.884 15.0249 712.188 15.0249C714.493 15.0249 716.797 15.0249 718.333 15.4096C720.253 15.7942 721.79 16.1788 722.942 17.3327C724.094 18.1019 725.246 19.6404 726.014 21.1789C726.782 22.7174 727.166 25.0251 727.166 27.7175V120.412Z" fill="#82368C"/>
</svg>
