<svg width="577" height="262" viewBox="0 0 577 262" fill="none" xmlns="http://www.w3.org/2000/svg">
<path d="M393.737 84.7286C397.577 82.0362 399.881 78.5746 401.034 74.7284L449.425 73.1899C449.809 75.8823 450.961 78.5746 452.881 81.267C454.802 83.9594 457.49 86.2671 460.562 87.421L445.968 134.73C441.36 133.96 436.751 135.114 432.526 138.191C428.302 141.268 425.613 145.499 424.845 150.115C424.077 154.73 425.229 159.346 428.302 163.577C431.374 167.807 435.215 170.115 439.823 171.269C444.432 172.038 449.041 170.884 453.649 167.807C457.874 164.73 460.562 160.5 461.33 155.884C462.099 151.269 460.946 146.653 457.874 142.422C455.954 139.73 453.649 137.807 451.345 136.653L466.323 88.9595C470.548 89.3441 474.772 88.1902 478.613 85.4979C482.838 82.4209 485.526 78.19 486.294 73.5745C487.062 68.959 485.91 64.3435 482.838 60.1127C479.765 55.8818 475.925 53.5741 471.316 52.4202C466.707 51.6509 462.099 52.8048 457.49 55.8818C453.265 58.9588 450.577 62.805 449.809 67.4205L401.802 68.959C401.418 65.4974 400.265 62.4204 398.345 59.3434C395.273 55.1126 391.432 52.8048 386.823 51.6509C382.215 50.8817 377.606 52.0356 372.997 55.1126C368.773 58.1895 366.084 62.4204 365.316 67.0359C364.548 71.6514 365.7 76.2669 368.773 80.4977C371.845 84.7286 375.686 87.0364 380.295 88.1902C384.903 88.9595 389.512 87.8056 393.737 84.7286ZM455.186 155.115C454.801 158.192 452.881 160.884 449.809 163.192C446.736 165.5 443.664 166.269 440.591 165.5C437.135 164.73 434.831 163.192 432.526 160.115C430.606 157.038 429.454 154.346 430.222 150.884C430.606 147.807 432.526 145.115 435.599 142.807C438.671 140.499 441.744 139.73 444.816 140.499C447.888 141.268 450.577 142.807 452.881 145.884C454.802 148.961 455.57 152.038 455.186 155.115ZM454.802 68.959C455.186 65.882 457.106 63.1897 460.178 60.8819C463.251 58.5742 466.323 57.8049 469.396 58.5742C472.468 59.3434 475.156 60.8819 477.461 63.9589C479.381 67.0359 480.533 70.1129 479.765 73.1899C479.381 76.2669 477.461 78.9592 474.388 81.267C471.316 83.5747 468.243 84.344 465.171 83.5747C461.715 82.8055 459.41 81.267 457.106 78.19C455.186 75.113 454.417 72.036 454.802 68.959ZM370.693 67.8051C371.077 64.7282 372.998 62.0358 376.07 59.728C379.142 57.4203 382.215 56.6511 385.287 57.4203C388.36 58.1896 391.048 59.728 393.352 62.805C395.273 65.882 396.425 68.959 395.657 72.036C395.273 75.113 393.352 77.8054 390.28 80.1131C387.208 82.4209 384.135 83.1901 381.063 82.4209C377.606 81.6516 375.302 80.1131 372.997 77.0361C371.077 74.3438 370.309 71.2668 370.693 67.8051Z" fill="white"/>
<path d="M382.98 103.576C378.372 103.576 374.531 104.73 371.459 107.422L331.517 80.4983C332.669 77.8059 333.437 75.1136 333.437 72.0366C333.437 68.5749 332.669 65.498 331.133 62.421L370.691 32.4203C374.147 35.8819 378.372 37.4204 383.364 37.4204C388.741 37.4204 393.35 35.4973 396.422 32.0357C399.879 28.574 401.415 24.3432 401.415 19.3431C401.415 14.3429 399.879 10.1121 396.422 6.26584C392.966 2.80422 388.741 0.881104 383.364 0.881104C377.988 0.881104 373.763 2.80422 370.307 6.26584C366.85 9.72746 365.314 13.9583 365.314 18.9584C365.314 22.0354 366.082 25.1124 367.234 27.4202L327.292 57.4208C324.22 54.7285 319.995 53.19 315.387 53.19C310.01 53.19 305.785 55.1131 302.329 58.5747C298.872 62.0363 297.336 66.2672 297.336 71.2673C297.336 76.2674 298.872 80.4983 302.329 83.9599C305.785 87.4215 310.01 89.3447 315.387 89.3447C320.763 89.3447 324.988 87.8062 328.06 84.3445L367.618 111.268C365.698 113.961 364.93 117.422 364.93 121.268C364.93 126.269 366.466 130.499 369.923 133.961C373.379 137.423 377.604 139.346 382.98 139.346C388.357 139.346 392.966 137.423 396.038 133.961C399.495 130.499 401.031 126.269 401.031 121.268C401.031 116.268 399.495 112.037 396.038 108.191C392.582 105.114 388.357 103.576 382.98 103.576ZM373.763 10.1121C376.067 7.80434 379.14 6.65047 382.596 6.65047C386.053 6.65047 389.509 7.80434 391.43 10.1121C393.734 12.4198 394.886 15.4968 394.886 18.9584C394.886 22.4201 393.734 25.497 391.43 27.8048C389.125 30.1125 386.437 31.2664 382.596 31.2664C378.756 31.2664 375.683 30.1125 373.763 27.8048C371.459 25.497 370.307 22.4201 370.307 18.9584C370.691 15.4968 371.843 12.8045 373.763 10.1121ZM323.836 80.8829C321.531 83.1907 318.843 84.3445 315.003 84.3445C311.162 84.3445 308.09 83.1907 306.169 80.8829C303.865 78.5752 302.713 75.4982 302.713 72.0366C302.713 68.5749 303.865 65.498 306.169 63.1902C308.474 60.8825 311.546 59.7286 315.003 59.7286C318.843 59.7286 321.916 60.8825 323.836 63.1902C326.14 65.498 327.292 68.5749 327.292 72.0366C327.292 75.4982 326.14 78.1906 323.836 80.8829ZM391.814 130.499C389.509 132.807 386.821 133.961 382.98 133.961C379.14 133.961 376.067 132.807 374.147 130.499C371.843 128.192 370.691 125.115 370.691 121.653C370.691 118.191 371.843 115.114 374.147 112.807C376.451 110.499 379.524 109.345 382.98 109.345C386.437 109.345 389.893 110.499 391.814 112.807C394.118 115.114 395.27 118.191 395.27 121.653C395.27 125.115 394.118 128.192 391.814 130.499Z" fill="white"/>
<path d="M28.1117 258.194C26.9595 258.579 25.0393 258.964 22.7349 259.348C20.0465 259.733 17.7422 259.733 15.4379 259.733C13.1335 259.733 10.8292 259.733 8.90892 259.348C6.98864 258.964 5.45241 258.194 4.30024 257.425C3.14808 256.656 1.99591 255.117 1.61185 253.579C0.843738 252.04 0.84375 249.733 0.84375 247.04V162.423C1.99592 162.038 3.9162 162.038 6.60459 161.654C9.29298 161.269 11.5973 161.269 13.9016 161.269C16.206 161.269 18.5103 161.269 20.4306 161.654C22.3509 162.038 23.8871 162.808 25.0393 163.577C26.1914 164.346 27.3436 165.885 27.7277 167.423C28.4958 168.962 28.8798 171.269 28.8798 173.962V258.194H28.1117Z" fill="white"/>
<path d="M84.1829 200.117C81.4945 200.117 78.8062 200.501 76.5018 201.27C74.1975 202.04 71.8932 203.194 70.3569 205.117C68.4367 206.655 67.2845 208.963 66.1323 211.271C64.9802 213.578 64.5961 216.655 64.5961 219.732C64.5961 226.271 66.5164 231.271 70.3569 234.733C74.1975 238.194 78.8062 239.733 84.1829 239.733C87.2554 239.733 90.3279 239.348 92.6322 238.579C94.9365 237.81 97.2409 237.04 98.7771 236.271C101.081 237.81 102.618 239.348 103.386 241.271C104.538 243.194 104.922 245.118 104.922 247.425C104.922 251.656 103.002 255.118 98.7771 257.426C94.5525 259.733 88.7916 260.887 81.4946 260.887C74.9656 260.887 68.8207 259.733 63.4439 257.81C58.0671 255.887 53.4585 253.195 49.6179 249.348C45.7773 245.887 42.7049 241.656 40.4006 236.271C38.0962 231.271 37.3281 225.886 37.3281 219.732C37.3281 212.809 38.4803 206.655 40.7846 201.27C43.089 195.886 46.1614 191.655 50.002 188.193C53.8425 184.732 58.4512 182.039 63.828 180.501C68.8207 178.962 74.5815 177.808 80.3424 177.808C88.0235 177.808 93.7843 179.347 98.0089 182.039C102.234 184.732 104.154 188.578 104.154 192.809C104.154 194.732 103.77 196.655 102.618 198.578C101.465 200.501 100.697 202.04 99.1611 203.194C97.2408 202.424 95.3206 201.655 92.6322 200.886C89.9438 200.501 87.2554 200.117 84.1829 200.117Z" fill="white"/>
<path d="M190.181 220.118C190.181 226.657 189.029 232.81 187.109 237.811C185.188 242.811 182.116 247.426 178.66 250.888C174.819 254.349 170.594 257.042 165.602 258.965C160.609 260.888 154.848 261.657 148.319 261.657C142.174 261.657 136.413 260.888 131.037 258.965C126.044 257.042 121.435 254.349 117.979 250.888C114.138 247.426 111.45 242.811 109.529 237.811C107.609 232.81 106.457 227.041 106.457 220.503C106.457 214.349 107.609 208.579 109.529 203.194C111.45 198.194 114.522 193.579 117.979 190.117C121.819 186.656 126.044 183.963 131.037 182.04C136.029 180.117 141.79 179.348 148.319 179.348C154.464 179.348 160.225 180.502 165.602 182.425C170.594 184.348 175.203 187.04 178.66 190.886C182.5 194.348 185.188 198.964 187.109 203.964C189.413 208.195 190.181 213.964 190.181 220.118ZM153.312 139.731C158.689 139.731 162.913 140.885 165.218 142.808C167.906 145.116 169.058 147.424 169.058 150.501C169.058 153.193 168.29 155.501 166.754 157.424C165.218 159.347 162.913 161.27 159.457 162.809L138.718 173.578C135.645 173.194 132.957 172.04 130.653 169.732C128.348 167.424 127.196 165.117 127.196 162.424C127.196 161.27 127.58 159.732 128.348 158.578C129.116 157.424 129.884 156.27 131.421 155.116L153.312 139.731ZM134.493 220.118C134.493 226.657 135.645 231.657 138.334 235.118C141.022 238.58 144.479 240.503 148.703 240.503C153.312 240.503 156.768 238.58 159.073 235.118C161.377 231.657 162.529 226.657 162.529 220.118C162.529 213.579 161.377 208.964 158.689 205.118C156.384 201.656 152.928 199.733 148.319 199.733C143.71 199.733 140.254 201.656 137.95 205.118C135.645 208.579 134.493 213.579 134.493 220.118Z" fill="white"/>
<path d="M262.772 235.501C262.772 243.578 259.699 250.117 253.554 254.732C247.409 259.348 238.576 261.656 226.67 261.656C222.062 261.656 218.221 261.271 214.381 260.886C210.54 260.117 207.083 259.348 204.395 257.809C201.707 256.656 199.402 254.732 197.866 252.809C196.33 250.886 195.562 248.194 195.562 245.502C195.562 242.809 195.946 240.886 197.098 238.963C198.25 237.04 199.402 235.886 200.939 234.732C204.011 236.271 207.468 237.809 211.692 239.348C215.533 240.501 220.141 241.271 225.518 241.271C228.975 241.271 231.279 240.886 233.199 239.732C235.12 238.963 235.888 237.424 235.888 235.886C235.888 234.347 235.12 233.194 233.967 232.424C232.815 231.655 230.511 230.886 227.438 230.501L222.83 229.732C213.612 227.809 206.699 225.116 202.091 221.27C197.482 217.424 195.178 211.655 195.178 204.347C195.178 200.5 195.946 196.654 197.866 193.577C199.402 190.5 202.091 187.808 205.163 185.5C208.236 183.192 212.076 181.654 216.301 180.5C220.525 179.346 225.518 178.577 230.511 178.577C234.351 178.577 238.192 178.962 241.648 179.346C245.105 180.115 248.177 180.885 250.866 182.039C253.554 183.192 255.474 184.731 257.011 186.654C258.547 188.577 259.315 190.885 259.315 193.193C259.315 195.5 258.931 197.808 257.779 199.347C257.011 201.27 255.859 202.424 254.322 203.577C253.554 203.193 252.018 202.424 250.482 202.039C248.946 201.27 247.025 200.885 244.721 200.5C242.801 200.116 240.496 199.731 238.576 199.347C236.656 198.962 234.735 198.962 232.815 198.962C229.359 198.962 226.67 199.347 224.75 200.116C222.83 200.885 222.062 202.039 222.062 203.962C222.062 205.116 222.446 206.27 223.598 206.654C224.75 207.424 226.67 208.193 229.743 208.578L234.735 209.731C245.105 212.039 252.402 215.501 256.627 219.347C260.467 223.963 262.772 228.963 262.772 235.501Z" fill="white"/>
<path d="M350.716 220.116C350.716 226.654 349.564 232.808 347.644 237.809C345.724 242.809 342.651 247.424 339.195 250.886C335.738 254.347 331.13 257.04 326.137 258.963C321.144 260.886 315.383 261.655 308.854 261.655C302.709 261.655 296.949 260.886 291.572 258.963C286.579 257.04 281.97 254.347 278.514 250.886C274.673 247.424 271.985 242.809 270.065 237.809C268.144 232.808 266.992 227.039 266.992 220.5C266.992 214.346 268.144 208.577 270.065 203.192C271.985 198.192 275.057 193.577 278.514 190.115C282.354 186.654 286.579 183.961 291.572 182.038C296.564 180.115 302.325 179.346 308.854 179.346C314.999 179.346 320.76 180.5 326.137 182.423C331.13 184.346 335.738 187.038 339.195 190.884C343.035 194.346 345.724 198.962 347.644 203.962C349.564 208.193 350.716 213.962 350.716 220.116ZM294.644 220.116C294.644 226.654 295.796 231.655 298.485 235.116C301.173 238.578 304.63 240.501 308.854 240.501C313.463 240.501 316.919 238.578 319.224 235.116C321.528 231.655 322.68 226.654 322.68 220.116C322.68 213.577 321.528 208.962 318.84 205.116C316.535 201.654 313.079 199.731 308.47 199.731C303.862 199.731 300.405 201.654 298.101 205.116C295.796 208.577 294.644 213.577 294.644 220.116Z" fill="white"/>
<path d="M401.417 200.117C398.729 200.117 396.041 200.501 393.736 201.27C391.432 202.04 389.128 203.194 387.591 205.117C385.671 206.655 384.519 208.963 383.367 211.271C382.215 213.578 381.83 216.655 381.83 219.732C381.83 226.271 383.751 231.271 387.591 234.733C391.432 238.194 396.041 239.733 401.417 239.733C404.49 239.733 407.562 239.348 409.867 238.579C412.171 237.81 414.475 237.04 416.011 236.271C418.316 237.81 419.852 239.348 420.62 241.271C421.772 243.194 422.156 245.118 422.156 247.425C422.156 251.656 420.236 255.118 416.011 257.426C411.787 259.733 406.026 260.887 398.729 260.887C392.2 260.887 386.055 259.733 380.678 257.81C375.302 255.887 370.693 253.195 366.852 249.348C363.012 245.887 359.939 241.656 357.635 236.271C355.331 231.271 354.562 225.886 354.562 219.732C354.562 212.809 355.715 206.655 358.019 201.27C360.323 195.886 363.396 191.655 367.236 188.193C371.077 184.732 375.686 182.039 381.062 180.501C386.055 178.962 391.816 177.808 397.577 177.808C405.258 177.808 411.019 179.347 415.243 182.039C419.468 184.732 421.388 188.578 421.388 192.809C421.388 194.732 421.004 196.655 419.852 198.578C418.7 200.501 417.932 202.04 416.396 203.194C414.475 202.424 412.555 201.655 409.867 200.886C407.178 200.501 404.49 200.117 401.417 200.117Z" fill="white"/>
<path d="M457.102 258.581C455.95 258.965 454.03 258.965 451.725 259.35C449.421 259.735 447.116 259.735 444.812 259.735C442.508 259.735 440.203 259.735 438.667 259.35C436.747 258.965 435.211 258.581 434.059 257.427C432.906 256.658 431.754 255.119 430.986 253.581C430.218 252.042 429.834 249.734 429.834 247.042V182.041C430.986 181.656 432.906 181.656 435.211 181.271C437.515 180.887 439.819 180.887 442.124 180.887C444.428 180.887 446.732 180.887 448.269 181.271C450.189 181.656 451.725 182.041 452.877 183.194C454.03 183.964 455.182 185.502 455.95 187.041C456.718 188.579 457.102 190.887 457.102 193.579V258.581Z" fill="white"/>
<path d="M500.118 178.577C505.878 178.577 511.255 179.346 515.864 180.5C520.473 181.654 524.697 183.577 528.154 185.885C531.61 188.193 533.914 191.27 535.835 195.116C537.755 198.962 538.523 203.193 538.523 208.193V243.963C538.523 246.655 537.755 248.963 536.219 250.886C534.683 252.809 532.762 254.348 530.842 255.502C523.929 259.733 514.328 261.656 501.654 261.656C495.893 261.656 490.9 261.271 486.292 260.117C481.683 258.963 477.842 257.425 474.77 255.502C471.697 253.194 469.009 250.502 467.089 247.425C465.168 243.963 464.4 240.117 464.4 235.886C464.4 228.578 466.705 222.809 470.929 218.962C475.154 215.116 482.067 212.424 491.284 211.655L512.407 209.347V208.193C512.407 205.116 510.871 202.808 508.183 201.654C505.494 200.5 501.654 199.731 496.277 199.731C492.052 199.731 488.212 200.116 484.371 200.885C480.531 201.654 477.074 202.808 474.002 203.962C472.466 202.808 471.313 201.654 470.545 199.731C469.777 197.808 469.009 195.885 469.009 193.577C469.009 190.885 469.777 188.577 470.929 187.039C472.081 185.5 474.386 183.962 477.074 182.808C480.147 181.654 483.987 180.885 488.212 180.115C492.436 178.962 496.277 178.577 500.118 178.577ZM501.27 241.655C503.19 241.655 505.11 241.655 507.415 241.271C509.719 240.886 511.255 240.501 512.407 239.732V227.04L500.886 227.809C497.813 228.193 495.509 228.578 493.589 229.732C491.668 230.886 490.9 232.424 490.9 234.347C490.9 236.655 491.668 238.194 493.205 239.732C494.357 240.886 497.429 241.655 501.27 241.655Z" fill="white"/>
<path d="M576.157 258.579C575.005 258.964 573.084 258.964 570.78 259.349C568.476 259.733 566.171 259.733 563.867 259.733C561.563 259.733 559.258 259.733 557.722 259.349C555.802 258.964 554.265 258.579 553.113 257.425C551.961 256.656 550.809 255.118 550.041 253.579C549.273 252.041 548.889 249.733 548.889 247.041V154.346C550.041 153.962 551.961 153.962 554.265 153.577C556.57 153.192 558.874 153.192 561.178 153.192C563.483 153.192 565.787 153.192 567.323 153.577C569.244 153.962 570.78 154.346 571.932 155.5C573.084 156.269 574.236 157.808 575.004 159.346C575.773 160.885 576.157 163.193 576.157 165.885V258.579Z" fill="white"/>
</svg>
