<svg width="106" height="758" viewBox="0 0 106 758" fill="none" xmlns="http://www.w3.org/2000/svg">
<path d="M47.3333 44.3H41.8889V49.7H47.3333V44.3ZM58.2222 44.3H52.7778V49.7H58.2222V44.3ZM69.1111 44.3H63.6667V49.7H69.1111V44.3ZM74.5556 25.4H71.8333V20H66.3889V25.4H44.6111V20H39.1667V25.4H36.4444C33.4228 25.4 31.0272 27.83 31.0272 30.8L31 68.6C31 71.57 33.4228 74 36.4444 74H74.5556C77.55 74 80 71.57 80 68.6V30.8C80 27.83 77.55 25.4 74.5556 25.4ZM74.5556 68.6H36.4444V38.9H74.5556V68.6Z" fill="#82368C"/>
<path d="M49.4993 458.917C38.0506 458.917 28.791 468.176 28.791 479.625C28.791 495.156 49.4993 518.083 49.4993 518.083C49.4993 518.083 70.2077 495.156 70.2077 479.625C70.2077 468.176 60.9481 458.917 49.4993 458.917ZM49.4993 487.021C45.4168 487.021 42.1035 483.707 42.1035 479.625C42.1035 475.542 45.4168 472.229 49.4993 472.229C53.5818 472.229 56.8952 475.542 56.8952 479.625C56.8952 483.707 53.5818 487.021 49.4993 487.021Z" fill="#82368C"/>
<path d="M50.9512 318.999L49.0503 440.001" stroke="#82368C" stroke-width="4"/>
<circle cx="50" cy="489" r="48" stroke="#82368C" stroke-width="4"/>
<circle cx="50" cy="708" r="48" stroke="#82368C" stroke-width="4"/>
<path d="M50 537L48 658" stroke="#82368C" stroke-width="4"/>
<circle cx="56" cy="50" r="48" stroke="#82368C" stroke-width="4"/>
<circle cx="51" cy="269" r="48" stroke="#82368C" stroke-width="4"/>
<path d="M51 98L49 219" stroke="#82368C" stroke-width="4"/>
<path d="M67.9577 256.229V285.833C67.9577 290.325 64.2827 294 59.791 294H44.8868C42.6818 294 40.5993 293.122 39.0681 291.57L23.041 275.278C23.041 275.278 25.6135 272.767 25.6952 272.726C26.1443 272.338 26.6956 272.134 27.3081 272.134C27.7573 272.134 28.1656 272.256 28.5331 272.46C28.6148 272.481 37.3327 277.483 37.3327 277.483V253.167C37.3327 251.472 38.7006 250.104 40.3952 250.104C42.0898 250.104 43.4577 251.472 43.4577 253.167V267.458H45.4993V248.063C45.4993 246.368 46.8673 245 48.5618 245C50.2564 245 51.6243 246.368 51.6243 248.063V267.458H53.666V250.104C53.666 248.41 55.0339 247.042 56.7285 247.042C58.4231 247.042 59.791 248.41 59.791 250.104V267.458H61.8327V256.229C61.8327 254.535 63.2006 253.167 64.8952 253.167C66.5898 253.167 67.9577 254.535 67.9577 256.229Z" fill="#82368C"/>
<path d="M49.5007 727.59L46.5402 724.895C36.0257 715.36 29.084 709.072 29.084 701.354C29.084 695.066 34.0248 690.125 40.3132 690.125C43.8657 690.125 47.2752 691.779 49.5007 694.392C51.7261 691.779 55.1357 690.125 58.6882 690.125C64.9765 690.125 69.9173 695.066 69.9173 701.354C69.9173 709.072 62.9757 715.36 52.4611 724.915L49.5007 727.59Z" fill="#82368C"/>
</svg>
