<svg width="37" height="36" viewBox="0 0 37 36" fill="none" xmlns="http://www.w3.org/2000/svg">
<g clip-path="url(#clip0)">
<path d="M7.93705 34.8898L6.84909 33.3987C6.61813 33.082 6.16698 33.0076 5.8415 33.2324C5.51609 33.4572 5.43948 33.8961 5.67059 34.2127L6.75854 35.7039C6.89946 35.897 7.12218 36 7.34845 36C7.49312 36 7.63917 35.9578 7.76614 35.8701C8.09155 35.6454 8.16815 35.2065 7.93705 34.8898Z" fill="white"/>
<path d="M16.2745 35.1524L15.0905 29.6618C14.5148 26.9919 12.9163 24.6833 10.5896 23.1611L8.0617 21.5072C7.04804 20.8442 5.68555 20.9868 4.83831 21.8274V13.355C4.83831 12.243 4.05907 11.2981 2.94329 11.0572C2.22317 10.9015 1.48043 11.0701 0.905123 11.5192C0.329891 11.9683 0 12.6374 0 13.355V24.2571C0 25.6853 0.449201 27.0559 1.29897 28.2206L2.58768 29.987C2.72859 30.1801 2.95132 30.2831 3.17758 30.2831C3.32225 30.2831 3.4683 30.2409 3.59527 30.1532C3.92068 29.9285 3.99728 29.4896 3.76618 29.1729L2.47747 27.4066C1.80223 26.4811 1.44531 25.392 1.44531 24.257V13.355C1.44531 13.0662 1.57813 12.7968 1.80967 12.616C2.04113 12.4352 2.3401 12.3674 2.63017 12.43C3.0793 12.527 3.393 12.9074 3.393 13.355V22.0046C3.393 23.229 3.85536 24.3955 4.6953 25.3031C4.73128 25.3451 4.76828 25.3866 4.80738 25.4269C5.28729 25.9217 5.85154 26.5048 6.38298 27.0543L7.12695 27.8247C7.12934 27.8272 7.13194 27.8293 7.1344 27.8317C7.77084 28.4903 8.2402 28.9766 8.25003 28.9868C8.52312 29.2698 8.98056 29.2838 9.2715 29.018C9.56244 28.7521 9.57682 28.3072 9.30351 28.0241C9.29036 28.0105 8.44442 27.134 7.47838 26.135L5.82141 24.4192C5.81721 24.4148 5.81339 24.4102 5.80919 24.4059C5.4207 23.9538 5.42554 23.2982 5.83275 22.8509C6.19299 22.4553 6.80465 22.3794 7.25537 22.6742L9.78314 24.3281C11.7956 25.6447 13.1781 27.6414 13.676 29.9506L14.8601 35.4412C14.9315 35.7726 15.2319 36.0001 15.5666 36.0001C15.6157 36.0001 15.6657 35.9951 15.7157 35.9849C16.1063 35.9052 16.3565 35.5324 16.2745 35.1524Z" fill="white"/>
<path d="M5.35465 31.3495L5.35002 31.3431C5.11805 31.027 4.66683 30.9536 4.34199 31.1792C4.01716 31.4047 3.94172 31.8438 4.17347 32.1599L4.1781 32.1662C4.31916 32.3585 4.54137 32.461 4.76699 32.461C4.91224 32.461 5.05887 32.4185 5.18613 32.3302C5.51089 32.1046 5.5864 31.6655 5.35465 31.3495Z" fill="white"/>
<path d="M36.0959 11.5191C35.5206 11.07 34.7775 10.9016 34.0578 11.057C32.942 11.2979 32.1627 12.2429 32.1627 13.3549V21.8273C31.3155 20.9867 29.9529 20.8441 28.9393 21.5071L26.4114 23.1609C24.0847 24.6831 22.4862 26.9918 21.9105 29.6617L20.7265 35.1523C20.6445 35.5323 20.8947 35.905 21.2853 35.9848C21.3353 35.995 21.3853 35.9999 21.4344 35.9999C21.7691 35.9999 22.0695 35.7724 22.1409 35.441L23.3249 29.9504C23.8229 27.6412 25.2053 25.6444 27.2178 24.3279L29.7457 22.6741C30.1963 22.3792 30.8079 22.4551 31.1683 22.8507C31.575 23.2975 31.5805 23.952 31.1934 24.4041C31.1888 24.409 31.1844 24.414 31.1797 24.419C31.1797 24.419 27.7106 28.0104 27.6976 28.0239C27.4243 28.307 27.4387 28.752 27.7296 29.0178C28.0205 29.2837 28.4778 29.2697 28.751 28.9866C28.7609 28.9765 31.7138 25.9216 32.1937 25.4268C32.2328 25.3865 32.2698 25.345 32.3058 25.303C33.1456 24.3954 33.6081 23.2289 33.6081 22.0044V13.3548C33.6081 12.9072 33.9218 12.5268 34.371 12.4298C34.661 12.3672 34.9599 12.4351 35.1915 12.6158C35.423 12.7966 35.5558 13.0659 35.5558 13.3548V24.2569C35.5558 25.3919 35.1989 26.4809 34.5237 27.4065L29.064 34.8896C28.8329 35.2062 28.9094 35.6452 29.2349 35.8699C29.3619 35.9576 29.5079 35.9998 29.6526 35.9998C29.8787 35.9998 30.1015 35.8967 30.2425 35.7037L35.7022 28.2205C36.5519 27.0558 37.0011 25.6852 37.0011 24.257V13.3548C37.0009 12.6372 36.6711 11.9681 36.0959 11.5191Z" fill="white"/>
<path d="M27.6521 13.4761L26.3664 13.1772V12.9529C27.202 12.3834 27.7499 11.4403 27.7499 10.3745V8.74826C27.7499 7.01303 26.2991 5.60137 24.5156 5.60137C23.7153 5.60137 22.9825 5.88627 22.4172 6.35652C21.7878 4.85676 20.2732 3.79688 18.5082 3.79688C16.741 3.79688 15.2249 4.8595 14.5969 6.36215C14.0307 5.88852 13.2953 5.60123 12.4917 5.60123C10.7083 5.60123 9.25739 7.01289 9.25739 8.74812V8.85619V10.3744C9.25739 11.4402 9.80531 12.3833 10.6409 12.9528V13.1771L9.35524 13.4759C7.82018 13.8328 6.74805 15.1544 6.74805 16.69V18.0032C6.74805 18.3915 7.07165 18.7063 7.4707 18.7063H10.7914C10.7863 18.7916 10.7828 18.8773 10.7828 18.9637V21.492C10.7828 21.8803 11.1064 22.1951 11.5054 22.1951H15.8493C16.2483 22.1951 16.5719 21.8803 16.5719 21.492C16.5719 21.1037 16.2483 20.7889 15.8493 20.7889H15.1026V19.3359C15.1026 18.9475 14.779 18.6328 14.38 18.6328C13.9809 18.6328 13.6573 18.9475 13.6573 19.3359V20.789H12.2281V18.9639C12.2281 17.6077 13.1748 16.4399 14.5301 16.1239L16.5132 15.6616L17.8403 18.5994C17.9557 18.8547 18.2153 19.0195 18.5018 19.0195H18.5019C18.7885 19.0195 19.048 18.8547 19.1634 18.5994L20.4892 15.666L22.466 16.1255C23.8225 16.4408 24.77 17.6088 24.77 18.9659V20.789H23.3408V19.3359C23.3408 18.9475 23.0172 18.6328 22.6182 18.6328C22.2191 18.6328 21.8955 18.9475 21.8955 19.3359V20.789H21.0765C20.6775 20.789 20.3539 21.1038 20.3539 21.4921C20.3539 21.8805 20.6775 22.1953 21.0765 22.1953H25.4927C25.8918 22.1953 26.2154 21.8805 26.2154 21.4921V18.9659C26.2154 18.8788 26.2118 18.7924 26.2066 18.7064H29.5367C29.9358 18.7064 30.2594 18.3917 30.2594 18.0033V16.6902C30.2594 15.1546 29.1872 13.8328 27.6521 13.4761ZM24.5156 7.00747C25.4625 7.00747 26.2397 7.72684 26.3007 8.6333H25.296C24.4514 8.6333 23.6202 8.43544 22.873 8.05871C23.1479 7.44081 23.7808 7.00747 24.5156 7.00747ZM22.7266 10.2717C22.7275 10.2375 22.7293 10.2034 22.7293 10.1689V9.54272C23.5402 9.86925 24.4122 10.0395 25.296 10.0395H26.3046V10.3744C26.3046 11.3342 25.5021 12.1151 24.5156 12.1151C23.5291 12.1151 22.7266 11.3342 22.7266 10.3744V10.2717ZM15.7325 7.90381C15.7325 6.41467 16.9776 5.20312 18.5082 5.20312C19.8887 5.20312 21.0369 6.18876 21.249 7.47463L20.0324 6.77917C19.7281 6.60522 19.3391 6.67054 19.1124 6.93386C18.5179 7.62418 17.646 8.02011 16.7203 8.02011H15.7325V7.90381ZM12.4918 7.00747C13.2266 7.00747 13.8595 7.44088 14.1344 8.05864C13.3871 8.43537 12.556 8.63323 11.7114 8.63323H10.7067C10.7677 7.72684 11.545 7.00747 12.4918 7.00747ZM10.7028 10.0395H11.7114C12.5961 10.0395 13.4691 9.86883 14.2808 9.5416V10.3743C14.2808 11.3341 13.4783 12.115 12.4918 12.115C11.5053 12.115 10.7028 11.3342 10.7028 10.3744V10.0395ZM14.1933 14.7564C12.7716 15.0878 11.6542 16.0523 11.1224 17.3001H8.19335V16.6901C8.19335 15.808 8.8092 15.0487 9.69105 14.8437L11.5315 14.4159C11.8568 14.3403 12.0863 14.0575 12.0863 13.7321V13.4957C12.2193 13.5119 12.3544 13.5213 12.4918 13.5213C12.6281 13.5213 12.7623 13.5121 12.8943 13.496V13.6966C12.8938 13.7071 12.8936 13.7176 12.8935 13.7281C12.8933 13.9588 13.0099 14.1847 13.224 14.3195C13.3046 14.3703 13.3918 14.4033 13.4807 14.4199L14.5587 14.6712L14.1933 14.7564ZM16.2091 13.6648C16.0234 13.5852 15.8299 13.5215 15.6305 13.475L14.3395 13.174V12.9549C14.5725 12.7965 14.7832 12.6092 14.9658 12.3982C15.2886 12.8819 15.7126 13.2956 16.2091 13.6106V13.6648ZM19.3477 14.6979L18.5021 16.5693L17.6545 14.6932V14.1914C17.9303 14.2467 18.2158 14.2759 18.5082 14.2759C18.7956 14.2759 19.0763 14.2476 19.3477 14.1941V14.6979ZM18.5082 12.8696C16.9776 12.8697 15.7325 11.6581 15.7325 10.1689V9.42628H16.7203C17.8663 9.42628 18.9559 9.01165 19.791 8.27211L21.2813 9.12401V10.2718C21.2255 11.7134 20.0034 12.8696 18.5082 12.8696ZM20.793 13.6671V13.6195C21.2935 13.3046 21.7214 12.8899 22.0466 12.4041C22.2281 12.6128 22.4369 12.798 22.6677 12.9549V13.174L21.3766 13.475C21.1755 13.522 20.9803 13.5864 20.793 13.6671ZM28.814 17.3001H25.875C25.3426 16.0523 24.2245 15.0884 22.8019 14.7577L22.439 14.6734L23.5228 14.4207C23.613 14.4044 23.7016 14.3709 23.7833 14.3195C23.997 14.1849 24.1132 13.959 24.1132 13.7283C24.1132 13.7228 24.1131 13.7172 24.113 13.7117V13.496C24.245 13.5121 24.3791 13.5213 24.5155 13.5213C24.6529 13.5213 24.788 13.5119 24.921 13.4957V13.7321C24.921 14.0575 25.1505 14.3403 25.4758 14.4159L27.3162 14.8437C28.1981 15.0487 28.814 15.808 28.814 16.6901V17.3001Z" fill="white"/>
<path d="M19.0108 20.9944C18.8758 20.8636 18.6901 20.7891 18.5 20.7891C18.3091 20.7891 18.1235 20.8636 17.9891 20.9944C17.8539 21.1259 17.7773 21.3066 17.7773 21.4922C17.7773 21.6771 17.8539 21.8578 17.9891 21.9893C18.1235 22.1201 18.3092 22.1953 18.5 22.1953C18.6901 22.1953 18.8758 22.1201 19.0108 21.9893C19.1453 21.8578 19.2227 21.6771 19.2227 21.4922C19.2227 21.3066 19.1453 21.1259 19.0108 20.9944Z" fill="white"/>
<path d="M18.5 0C18.1009 0 17.7773 0.314788 17.7773 0.703122V1.7552C17.7773 2.14354 18.1009 2.45833 18.5 2.45833C18.899 2.45833 19.2227 2.14354 19.2227 1.7552V0.703122C19.2227 0.314788 18.8991 0 18.5 0Z" fill="white"/>
<path d="M15.8372 2.29369L15.0791 1.55682C14.7968 1.28232 14.3392 1.28253 14.0571 1.55724C13.775 1.83195 13.7753 2.27717 14.0576 2.55159L14.8158 3.28847C14.9568 3.42565 15.1417 3.4942 15.3265 3.4942C15.5115 3.4942 15.6965 3.42543 15.8377 3.28804C16.1197 3.01333 16.1195 2.56812 15.8372 2.29369Z" fill="white"/>
<path d="M22.925 1.57436C22.6427 1.29993 22.185 1.30007 21.9031 1.57485L21.1508 2.30743C20.8688 2.58214 20.869 3.02736 21.1514 3.30179C21.2925 3.43897 21.4773 3.50752 21.6621 3.50752C21.8472 3.50752 22.0323 3.43876 22.1733 3.3013L22.9255 2.56872C23.2076 2.29401 23.2074 1.84879 22.925 1.57436Z" fill="white"/>
</g>
<defs>
<clipPath id="clip0">
<rect width="37" height="36" fill="white"/>
</clipPath>
</defs>
</svg>
